<?xml version="1.0" encoding="UTF-8" standalone="no"?>
<svg width="63px" height="13px" viewBox="0 0 63 13" version="1.1" xmlns="http://www.w3.org/2000/svg" xmlns:xlink="http://www.w3.org/1999/xlink">
    <!-- Generator: Sketch 3.7.2 (28276) - http://www.bohemiancoding.com/sketch -->
    <title>Group 6</title>
    <desc>Created with Sketch.</desc>
    <defs></defs>
    <g id="Main" stroke="none" stroke-width="1" fill="none" fill-rule="evenodd" opacity="0.75">
        <g id="Pheno-Home-2-Copy" transform="translate(-1087.000000, -1282.000000)" fill="#000000">
            <g id="Group-6" transform="translate(1087.000000, 1282.000000)">
                <g id="Page-1">
                    <path d="M6.0006231,0.957475051 L7.7776264,0.957475051 C7.79853729,1.17623367 7.78375182,1.40132089 7.78628647,1.6255643 C7.78903234,1.85318296 7.78692013,2.08122353 7.78692013,2.30884219 L7.78692013,3.01764544 L7.78692013,3.70113428 L7.78692013,4.38462312 L7.78692013,5.1145217 C7.86591683,5.01769412 7.91238548,4.96390101 7.95547459,4.90757647 C8.39777162,4.33083002 8.99066931,4.00532901 9.69720396,3.87749128 C10.3505109,3.75914645 10.9928343,3.81547099 11.6112898,4.055114 C12.4373756,4.37534118 12.9012172,5.00123976 13.0659696,5.85560081 C13.1088475,6.07731278 13.1263789,6.30683002 13.1270125,6.53297201 C13.1316594,8.3385217 13.1295472,10.1442824 13.1297584,11.949832 L13.1297584,12.1584649 L11.3510653,12.1584649 L11.3510653,11.8766312 C11.3510653,10.290473 11.349798,8.70431481 11.3525439,7.11794564 C11.3529663,6.83801055 11.3183261,6.56356024 11.249468,6.29396187 C11.1047815,5.72670832 10.7596462,5.36091521 10.1675934,5.26450953 C9.6336264,5.17759675 9.12479472,5.24257039 8.66686733,5.55457039 C8.22668251,5.854757 7.96265611,6.2770856 7.85366601,6.78991318 C7.80508515,7.01816471 7.79072211,7.25717485 7.78987723,7.49133306 C7.78417426,8.95113022 7.78692013,10.4107164 7.78692013,11.8705136 L7.78692013,12.1574101 L6.0006231,12.1574101 L6.0006231,0.957475051 Z" id="Fill-1"></path>
                    <path d="M30.7470997,8.22416389 C30.5882614,8.37668316 30.4431525,8.51633428 30.2974099,8.65556349 C30.1328686,8.81272373 29.9706508,8.97262637 29.8018851,9.12493469 C29.6933175,9.22302799 29.6521294,9.33504422 29.6529743,9.4820787 C29.658466,10.3001558 29.6555089,11.1184438 29.6555089,11.9365209 L29.6555089,12.1352389 C29.4654099,12.1799611 28.3093967,12.1917744 27.8964594,12.1544357 L27.8964594,0.979604057 C28.0645914,0.935303854 29.1904,0.921591886 29.6453703,0.962516836 C29.6487498,1.04732008 29.6550865,1.13655335 29.6550865,1.22599757 C29.6557201,3.14904828 29.6555089,5.07230994 29.6559314,6.99536065 C29.6559314,7.0837501 29.6605782,7.1719286 29.6643802,7.30904828 C29.7602746,7.22508884 29.817938,7.18057769 29.8688422,7.12931602 C30.5234165,6.47093063 31.1777795,5.81275619 31.8302416,5.15226126 C32.16207,4.81642353 32.4913637,4.47763245 32.8181228,4.13673185 C32.8800106,4.07239108 32.93873,4.03104422 33.0337795,4.03146613 C33.7175023,4.03484138 34.4010139,4.03336471 35.1274033,4.03336471 C34.070664,5.04657363 33.0411723,6.03383529 32.0061888,7.02637079 C33.1467828,8.74163245 34.2755485,10.4389631 35.4174099,12.1561233 L33.2274693,12.1561233 C32.4070865,10.8558069 31.5810007,9.54620852 30.7470997,8.22416389" id="Fill-3"></path>
                    <path d="M20.6322271,12.1581907 L18.8655736,12.1581907 L18.8655736,4.06433266 C19.0525043,4.02572819 20.1728211,4.01686815 20.5295736,4.05441785 L20.5295736,5.22225558 C20.5449927,5.22647465 20.5602007,5.23090467 20.5756198,5.23533469 C20.6104713,5.19419878 20.649336,5.15601623 20.6795406,5.11192698 C21.0956462,4.50248276 21.6587617,4.10335903 22.3737452,3.91244625 C22.7890059,3.80169574 23.2099696,3.80338337 23.6294548,3.84705071 C23.9722667,3.88270183 24.305996,3.97024746 24.6217716,4.12150101 C25.2896528,4.44130629 25.7085043,4.96510345 25.884029,5.6743286 C25.9520422,5.94920081 25.987105,6.23905071 25.9885835,6.52236105 C25.997666,8.31019067 25.9932304,10.0982312 25.9932304,11.8862718 L25.9932304,12.1349858 C25.8035538,12.1801298 24.6221941,12.1915213 24.2305901,12.1516511 C24.2272106,12.066215 24.2204515,11.9765598 24.2204515,11.8871156 C24.2198178,10.3351318 24.2236198,8.78335903 24.2168607,7.23158621 C24.2153822,6.89659229 24.1856,6.56096552 24.0905505,6.23462069 C23.9053096,5.59859635 23.4425241,5.2614929 22.7640818,5.23322515 C22.2653888,5.21234077 21.809996,5.31676268 21.4148013,5.6331927 C20.9934152,5.97092901 20.7600158,6.41857201 20.6786957,6.94363489 C20.6427881,7.17505071 20.6347617,7.41258418 20.6341281,7.64758621 C20.6303261,9.05591075 20.6322271,10.4644462 20.6322271,11.8727708 L20.6322271,12.1581907 Z" id="Fill-5"></path>
                    <path d="M4.73502838,5.38234807 L3.1352396,5.38234807 C3.13059274,5.48761379 3.12383366,5.56967465 3.12383366,5.6517355 C3.1232,7.02694037 3.12172145,8.40214523 3.12531221,9.7773501 C3.12573465,9.96151237 3.13291617,10.1498937 3.17241452,10.3283602 C3.24106139,10.6376178 3.42609109,10.7983643 3.73700858,10.8127091 C4.06397888,10.8278978 4.39263894,10.8122872 4.73038152,10.8099667 L4.73038152,12.1419262 C4.19937162,12.2227213 3.67976766,12.250989 3.15699538,12.2271513 C2.86910099,12.2140722 2.58775446,12.165131 2.31654653,12.0680925 C1.88290957,11.9128308 1.59438152,11.6187619 1.46152343,11.1734394 C1.34725281,10.7897152 1.3202165,10.3964982 1.31979406,10.0003278 C1.31810429,8.55761785 1.3191604,7.11490791 1.3191604,5.67219797 L1.3191604,5.37749615 L8.44884489e-05,5.37749615 L8.44884489e-05,4.03941907 C0.212572937,4.02655091 0.429708251,4.0352 0.646209901,4.03372333 C0.857008581,4.0320357 1.06780726,4.03330142 1.26910099,4.03330142 C1.28452013,4.01790183 1.29085677,4.01220609 1.29655974,4.00587748 C1.30205149,3.99975984 1.31155644,3.99322028 1.31155644,3.98689168 C1.3121901,3.2032 1.3121901,2.41950832 1.3121901,1.63982475 C1.51411749,1.59425882 2.62704158,1.58117972 3.11855314,1.61704178 C3.1202429,1.88073347 3.12235512,2.14758945 3.1232,2.41444544 C3.12383366,2.67602759 3.12341122,2.93760974 3.12341122,3.19919189 L3.12341122,4.03055903 L4.73502838,4.03055903 L4.73502838,5.38234807 Z" id="Fill-7"></path>
                    <path d="M45.4593901,12.1608487 L44.4784792,12.1608487 L44.4784792,1.09444706 C44.6347828,1.09107181 44.7910865,1.08643083 44.9476013,1.0847432 C45.1074957,1.08305558 45.2673901,1.0843213 45.4566442,1.0843213 C45.4623472,1.38809412 45.4585452,1.68089736 45.4591789,1.9732787 C45.4598125,2.26861339 45.4593901,2.56394807 45.4593901,2.85928276 L45.4593901,3.77060122 L45.4593901,4.65660527 L45.4593901,5.52805355 C45.4724858,5.52953022 45.4855815,5.53121785 45.4986772,5.53269452 C45.5495815,5.43734361 45.5966838,5.33988316 45.6516013,5.24706369 C45.9701228,4.70828884 46.442202,4.3526215 47.0211591,4.14019148 C47.8466112,3.83726247 48.6811459,3.88662556 49.4994165,4.15706775 C50.2988884,4.42118134 50.7413967,5.02007789 50.9333967,5.81980203 C51.0102812,6.14024016 51.0487234,6.46531927 51.0485122,6.7952503 C51.0474561,8.53350588 51.0480898,10.2717615 51.0476673,12.010017 C51.0476673,12.0519968 51.0440766,12.0939765 51.0415419,12.1441834 C50.8856607,12.200297 50.7249215,12.1627473 50.5679842,12.1697087 C50.4169611,12.1764592 50.2655155,12.1711854 50.0855551,12.1711854 C50.0838653,12.0709826 50.0809083,11.9817493 50.0809083,11.8923051 C50.0804858,10.314585 50.0817531,8.73665396 50.0798521,7.15872292 C50.0794297,6.76128682 50.0297927,6.37060122 49.9028488,5.99109615 C49.7057795,5.40295822 49.3190337,5.00531116 48.7126178,4.86101907 C47.9422944,4.67748966 47.2028092,4.75069047 46.5416871,5.2289217 C46.0197597,5.60652819 45.7149677,6.12884868 45.5630997,6.74652008 C45.4904396,7.04206572 45.4568554,7.34119757 45.4577003,7.64665801 C45.4615023,9.05582637 45.4593901,10.4649947 45.4593901,11.8741631 L45.4593901,12.1608487 Z" id="Fill-10"></path>
                    <path d="M57.0298719,12.159583 L56.0975419,12.159583 C56.094796,12.1570515 56.088037,12.1519886 56.082334,12.14566 C56.0772647,12.1397533 56.0692383,12.1327919 56.0692383,12.1262523 C56.0664924,9.54502718 56.0645914,6.96401298 56.0624792,4.38299878 L56.0624792,4.1952503 L57.027971,4.1952503 L57.027971,5.52067018 C57.0419116,5.52362353 57.0558521,5.52636592 57.0697927,5.52931927 C57.0951393,5.48902718 57.1236541,5.45063367 57.1454099,5.408443 C57.5374363,4.6551286 58.1713109,4.22415091 58.9830337,4.02838621 C59.6310601,3.87206978 60.274862,3.93155862 60.9066244,4.09989939 C61.7344,4.32034564 62.252103,4.87177769 62.4827564,5.68922191 C62.5881558,6.06239838 62.6420172,6.44717728 62.642862,6.83554239 C62.6462416,8.53941258 62.6443406,10.2432828 62.6443406,11.9471529 L62.6443406,12.1578953 L61.6511789,12.1578953 L61.6511789,11.8826012 C61.6511789,10.3137412 61.6507564,8.74467018 61.6516013,7.17581014 C61.6518125,6.84651197 61.6273109,6.52122191 61.5472581,6.19972901 C61.3451195,5.38713671 60.8493835,4.91080406 59.9905584,4.7966783 C59.5102416,4.73275943 59.0314033,4.77452819 58.5760106,4.9702929 C57.9436145,5.24242272 57.5268752,5.71622394 57.2717201,6.34381014 C57.0980964,6.77120162 57.0343076,7.2207432 57.0321954,7.67661339 C57.0256475,9.0769217 57.0298719,10.47723 57.0298719,11.8773274 L57.0298719,12.159583 Z" id="Fill-12"></path>
                    <path d="M43.768565,1.09993185 L43.768565,1.94395619 C43.6872449,2.01652414 43.5898719,1.9859359 43.5013703,1.9859359 C42.3865452,1.98825639 41.2719314,1.98741258 40.1571063,1.98741258 L39.8954033,1.98741258 C39.8761822,2.01272698 39.8709017,2.01926653 39.8660436,2.02622799 C39.8611855,2.0329785 39.8554825,2.03951805 39.8525254,2.04711237 C39.8495683,2.05470669 39.8491459,2.06356673 39.8485122,2.07200487 C39.8470337,2.09710832 39.8451327,2.12242272 39.8451327,2.14773712 C39.8430205,5.47067424 39.8409083,8.79361136 39.8385848,12.1165485 C39.8385848,12.1243538 39.833938,12.1319481 39.8221096,12.1694978 C39.6577795,12.1699197 39.4830997,12.1707635 39.308631,12.1711854 C39.1413439,12.1713963 38.9740568,12.1711854 38.784169,12.1711854 L38.784169,2.00344503 C38.4455815,1.97138012 38.1272713,1.99205355 37.8100172,1.98825639 C37.4807234,1.98445923 37.1514297,1.98741258 36.822136,1.98741258 L35.8593901,1.98741258 L34.8873505,1.98741258 L34.8873505,1.12081623 C35.0747036,1.07335172 43.1807366,1.05246734 43.768565,1.09993185" id="Fill-14"></path>
                    <path d="M13.8425875,4.04517809 L16.8987459,4.04517809 L16.8987459,12.1392471 C16.7082244,12.1789063 15.420198,12.1865006 15.1181518,12.1472633 L15.1181518,5.3094215 C14.696132,5.26765274 14.4071815,5.03096308 14.1649109,4.72803408 C14.0075512,4.5312146 13.8765941,4.31836268 13.8425875,4.04517809" id="Fill-16"></path>
                    <path d="M54.0212172,4.22406653 L54.0212172,12.157389 C53.8619564,12.1865006 53.7031182,12.1668819 53.5463921,12.1704682 C53.3864977,12.1740544 53.2266033,12.171312 53.0692436,12.171312 C53.0246759,11.9806101 53.0134812,4.53965274 53.0546693,4.2097217 C53.3320026,4.16753103 53.8499168,4.17512535 54.0212172,4.22406653" id="Fill-18"></path>
                    <path d="M16.9869729,0.178445436 C17.0064053,0.206080325 17.031963,0.229707099 17.0421017,0.258818661 C17.2474086,0.848011359 17.3426693,1.44880649 17.1996726,2.06711075 C17.0226693,2.83371521 16.5123591,3.19317972 15.8104713,3.30730548 C15.5872106,3.34358945 15.357402,3.33831562 15.1307617,3.35498093 C15.0152238,3.36363002 14.9381281,3.31025882 14.8806759,3.21701744 C14.6354482,2.81958134 14.4916066,2.39451034 14.5518046,1.92176389 C14.5919366,1.6070215 14.7566891,1.35134604 14.9905109,1.1471432 C15.1225241,1.03196268 15.271435,0.925431237 15.4302733,0.853285193 C15.9418508,0.619970791 16.4614548,0.404587424 16.9869729,0.178445436" id="Fill-20"></path>
                    <path d="M53.0469809,1.10033266 C53.0942944,1.09442596 53.134004,1.08535497 53.1737135,1.08514402 C53.4495683,1.0838783 53.7252119,1.08451116 54.0135287,1.08451116 L54.0135287,2.640714 L53.0469809,2.640714 L53.0469809,1.10033266 Z" id="Fill-23"></path>
                </g>
            </g>
        </g>
    </g>
</svg>