<?xml version="1.0" encoding="UTF-8" standalone="no"?>
<svg width="57px" height="32px" viewBox="0 0 57 32" version="1.1" xmlns="http://www.w3.org/2000/svg" xmlns:xlink="http://www.w3.org/1999/xlink">
    <!-- Generator: Sketch 3.7.2 (28276) - http://www.bohemiancoding.com/sketch -->
    <title>Page 1</title>
    <desc>Created with Sketch.</desc>
    <defs></defs>
    <g id="Main" stroke="none" stroke-width="1" fill="none" fill-rule="evenodd" opacity="0.75">
        <g id="Pheno-Home-2-Copy" transform="translate(-589.000000, -1272.000000)" fill="#000000">
            <g id="Group-4" transform="translate(589.000000, 1242.000000)">
                <g id="Page-1" transform="translate(0.000000, 30.000000)">
                    <path d="M20.63685,22.1458051 C20.6409214,22.5142154 20.8290214,22.9827282 21.3200357,23.0647795 C21.6139929,23.1296 21.7703357,23.1492923 22.0602214,23.1492923 C22.1620071,23.1509333 22.2540214,23.1566769 22.3558071,23.227241 C22.46085,23.2986256 22.4958643,23.4348308 22.4909786,23.5111385 C22.4909786,23.7589333 22.2238929,23.867241 22.0602214,23.867241 C20.9340643,23.867241 20.3078786,23.7778051 19.2085929,23.7778051 C18.1109357,23.7778051 17.4627643,23.867241 16.3349786,23.867241 C16.2551786,23.8656 16.1745643,23.8721641 16.0662643,23.803241 C15.9522643,23.7285744 15.9237643,23.5866256 15.9294643,23.5111385 C15.9294643,23.2715487 16.1786357,23.1492923 16.3349786,23.1492923 C16.6370786,23.1492923 16.8259929,23.1082667 17.1337929,23.0614974 C17.7208929,22.9293949 17.9505214,22.8342154 17.9912357,21.4664205 C17.9928643,20.8009846 18.03765,17.4393436 18.03765,14.8744205 C18.03765,13.015959 17.9684357,10.7242667 17.9374929,9.48036923 C17.0018786,11.0688821 16.3366071,12.1560615 15.2943214,13.8774974 C13.7642786,16.4210872 11.5119643,20.0173949 11.2823357,20.4030359 C11.12925,20.6647795 10.9834929,20.8978051 10.6773214,20.8928821 C10.3336929,20.8674462 10.2327214,20.6057026 10.07475,20.3817026 C7.46089286,16.279959 4.32100714,11.3979077 3.61257857,10.4157538 L3.38213571,10.0973949 C3.37969286,10.4067282 3.37806429,10.7948308 3.37806429,11.1977026 C3.37806429,11.6621128 3.37969286,12.1437538 3.38783571,12.5523692 C3.43669286,16.5810872 3.71517857,22.0391385 4.28843571,23.0278564 C4.79736429,23.0926769 5.11737857,23.1492923 5.55546429,23.1492923 C5.72727857,23.1492923 6.00739286,23.2543179 6.00739286,23.5111385 C5.98947857,23.8057026 5.71343571,23.867241 5.55546429,23.8688821 C4.54493571,23.867241 3.96679286,23.799959 2.98069286,23.799959 C1.97179286,23.799959 1.46123571,23.867241 0.429535714,23.867241 C0.267492857,23.867241 0.000407142856,23.7605744 0.000407142856,23.5111385 C0.000407142856,23.2625231 0.267492857,23.1492923 0.429535714,23.1492923 C0.797592857,23.1492923 1.16565,23.0918564 1.58826429,23.0844718 C1.78125,22.7989333 2.07276429,21.5123692 2.21933571,19.7080615 C2.40092143,17.7216 2.50433571,15.0393436 2.50433571,12.0116513 L2.50433571,9.04631795 C2.17210714,8.66395897 1.18356429,7.72036923 1.08747857,7.75318974 C0.824464286,7.7056 0.659164286,7.6670359 0.406735714,7.6670359 C0.326935714,7.66375385 0.25365,7.66949744 0.151864286,7.61370256 C0.0403071429,7.55708718 -0.00610714286,7.40611282 0.000407142856,7.33226667 C0.0118071429,7.07380513 0.255278571,6.99339487 0.406735714,6.99339487 L1.69982143,6.99339487 L4.58565,6.92365128 L4.65323571,7.03113846 C5.95039286,9.11934359 6.75979286,10.3427282 8.12616429,12.4087795 C9.52592143,14.519959 10.4086071,15.7720615 11.8279071,17.7724718 C12.8579786,16.1626256 13.5159214,15.1181128 14.5468071,13.4188308 C16.0328786,10.9843692 16.9326643,9.55749744 18.3202071,7.06313846 L18.3902357,6.94170256 L18.5286643,6.95072821 L19.1996357,6.99339487 C19.5807214,7.01636923 19.9056214,7.02375385 20.2117929,7.02375385 C20.8257643,7.02375385 21.3737786,6.99339487 22.1546786,6.99339487 C22.2466929,6.99585641 22.3338214,7.00406154 22.4250214,7.0656 C22.51785,7.12467692 22.5642643,7.24939487 22.5585643,7.33226667 C22.5585643,7.59729231 22.2597214,7.6670359 22.1546786,7.6670359 C21.8875929,7.6670359 21.75975,7.68508718 21.4853357,7.75154872 C21.14415,7.81390769 20.7386357,8.38088205 20.72805,8.93718974 C20.6832643,9.57883077 20.61405,12.5860103 20.61405,14.9228308 C20.60835,15.5021128 20.6067214,16.119959 20.6067214,16.7419077 C20.6067214,19.1476513 20.63685,21.6190359 20.63685,22.1458051" id="Fill-1"></path>
                    <polygon id="Fill-4" points="26.277 31.8381128 27.7207286 31.8381128 27.7207286 -0.000246153846 26.277 -0.000246153846"></polygon>
                    <path d="M56.69277,7.78855385 C56.5909843,7.8558359 56.4973414,7.85993846 56.3922986,7.86157949 C56.0616986,7.85747692 55.63827,8.00024615 55.53567,8.06014359 C55.53567,8.06014359 55.5332271,8.05850256 55.5372986,8.0544 C55.5315986,8.05275897 55.2368271,8.45234872 55.0560557,8.75019487 C54.7987414,9.19491282 52.9201843,13.0464 51.69387,15.7155282 C50.16627,19.0665026 49.6719986,20.0675282 48.1476557,23.4373744 C48.0499414,23.6539897 47.82927,24.120041 47.6598986,24.3735795 C47.6191843,24.4121436 47.6053414,24.4523487 47.5743986,24.4892718 L47.5743986,24.5557333 L47.3936271,24.5885538 C47.3610557,24.5934769 47.34477,24.5934769 47.33907,24.5934769 C46.9359986,24.5056821 46.8928414,24.1856821 46.7079986,23.8016821 C45.7227129,21.3606564 45.37827,20.5975795 44.36937,18.296041 L43.9117414,17.2827077 L43.63407,17.7963487 C42.2302414,20.4244513 41.88987,21.1826051 40.7018271,23.7302974 C40.66437,23.8016821 40.5821271,23.9994256 40.4974414,24.1741949 C40.3728557,24.3456821 40.4151986,24.5253744 40.0740129,24.6148103 C40.0609843,24.6156308 40.04877,24.6172718 40.0365557,24.6172718 C39.7108414,24.5737846 39.5789271,24.340759 39.2914843,23.6351179 C38.48127,21.4829128 37.4739986,19.2978872 36.0685414,16.1766564 C34.8853843,13.5239385 33.9505843,11.2429128 32.9025986,9.44845128 C32.4172843,8.60906667 32.2234843,8.13645128 31.4629414,7.94855385 C31.2202843,7.88701538 31.0517271,7.88537436 30.7536986,7.88537436 C30.62667,7.88537436 30.2911843,7.8369641 30.2871129,7.52270769 C30.3066557,7.21829744 30.5892129,7.16168205 30.7569557,7.16168205 C31.9303414,7.18465641 32.6412129,7.29952821 33.8333271,7.29952821 C35.0433557,7.29952821 35.73387,7.16168205 36.9854271,7.16168205 C37.0725557,7.19778462 37.3437129,7.09029744 37.4520129,7.50055385 C37.4503843,7.78363077 37.16457,7.88537436 37.0090414,7.88537436 C36.8046557,7.88537436 36.6352843,7.90670769 36.4048414,7.97070769 C36.0107271,8.09132308 35.76807,8.28988718 35.76807,8.63778462 C35.76807,8.74691282 35.7916843,8.88147692 35.8608986,9.04804103 C36.9797271,11.8632205 38.9649557,16.3538872 41.0568557,20.3949128 C41.4200271,19.7672205 42.0063129,18.7858872 42.4077557,18.0301949 C42.7530129,17.3754256 43.25217,16.3842462 43.4109557,16.0658872 L43.3653557,15.9813744 C42.0315557,13.4361436 41.0926843,11.1485538 40.2116271,9.34424615 C39.8191414,8.57050256 39.4364271,8.09788718 38.7125271,7.9518359 C38.5048843,7.90834872 38.29317,7.88537436 38.1425271,7.88537436 C38.0163129,7.88537436 37.6783843,7.8369641 37.6743129,7.52270769 C37.6962986,7.21829744 37.9780414,7.16168205 38.1482271,7.16168205 C39.12537,7.18629744 39.8826557,7.29952821 41.07477,7.29952821 C42.2847986,7.29952821 42.9736843,7.16168205 44.2284986,7.16168205 C44.3929843,7.16168205 44.6682129,7.26342564 44.6698414,7.52270769 C44.6698414,7.77378462 44.4076414,7.88537436 44.2504843,7.88537436 C44.0281843,7.88537436 43.8726557,7.88701538 43.6715271,7.96168205 C43.2790414,8.14629744 43.13817,8.27101538 43.12677,8.64516923 C43.12677,8.75593846 43.14387,8.88886154 43.1829557,9.04804103 C43.5054129,10.2230154 46.6355271,17.1284513 48.34227,20.5557333 C48.7616271,19.7376821 49.56207,18.1122462 51.09537,14.8039385 C51.9544414,12.9750154 52.5130414,11.4570667 52.8534129,9.84968205 C52.9739271,9.30075897 52.9959129,8.97829744 52.9959129,8.61563077 C52.9950986,8.30875897 52.9600843,8.12414359 52.9226271,7.98301538 C52.5578271,7.93788718 52.0635557,7.88537436 51.7410986,7.88537436 C51.6124414,7.88537436 51.2761414,7.87388718 51.2468271,7.52270769 C51.2940557,7.18137436 51.5766129,7.16906667 51.7410986,7.16168205 C52.7157986,7.16168205 53.3322129,7.2544 54.2767843,7.2544 C55.2636986,7.2544 55.3614129,7.16168205 56.3922986,7.16168205 C56.4900129,7.17070769 56.7790843,7.14363077 56.83527,7.50055385 C56.8425986,7.57850256 56.80107,7.71881026 56.69277,7.78855385" id="Fill-6"></path>
                </g>
            </g>
        </g>
    </g>
</svg>