<?xml version="1.0" encoding="UTF-8" standalone="no"?>
<svg width="60px" height="19px" viewBox="0 0 60 19" version="1.1" xmlns="http://www.w3.org/2000/svg" xmlns:xlink="http://www.w3.org/1999/xlink">
    <!-- Generator: Sketch 3.7.2 (28276) - http://www.bohemiancoding.com/sketch -->
    <title>Group 10</title>
    <desc>Created with Sketch.</desc>
    <defs></defs>
    <g id="Main" stroke="none" stroke-width="1" fill="none" fill-rule="evenodd" opacity="0.75">
        <g id="Pheno-Home-2-Copy" transform="translate(-294.000000, -1650.000000)" fill="#000000">
            <g id="Group-10" transform="translate(294.000000, 1650.000000)">
                <g id="Group-2">
                    <path d="M5.78573304,13.1415319 C2.67925602,13.1415319 0.379562363,11.4626596 0,8.76115603 L3.17763676,8.76115603 C3.6043326,9.83189362 4.86091904,10.221461 5.78573304,10.221461 C7.04231947,10.221461 7.99089716,9.83189362 7.99089716,9.10194326 C7.99089716,8.39624823 7.56420131,8.10424113 5.42980306,7.7631844 C3.24814004,7.42239716 0.332035011,6.81453191 0.332035011,4.01560284 C0.332035011,2.04458865 2.01557987,0 5.54822757,0 C8.34669584,0 10.4331729,1.55719149 10.836105,3.91831206 L7.58770241,3.91831206 C7.39811816,3.33429787 6.71028446,2.87129078 5.54822757,2.87129078 C4.10218818,2.87129078 3.50914661,3.40706383 3.50914661,3.86939716 C3.50914661,4.52644681 4.41032823,4.74555319 5.92778993,4.98891489 C8.96297593,5.50002837 11.1443764,6.18146809 11.1443764,8.9073617 C11.1443764,11.3892199 8.91544858,13.1415319 5.78573304,13.1415319" id="Fill-1"></path>
                    <path d="M22.6906083,12.8497404 L19.7033435,12.8497404 L19.7033435,11.7058326 C18.9443501,12.6063787 17.8773479,13.141478 16.5967352,13.141478 C13.7041313,13.141478 11.7834748,10.9272369 11.7834748,7.64131489 L11.7834748,0.316612766 L14.9135842,0.316612766 L14.9135842,7.64131489 C14.9135842,8.34741418 15.1505646,10.0994567 17.1899081,10.0994567 C18.5889453,10.0994567 19.5608928,9.02939291 19.5608928,7.64131489 L19.5608928,0.316612766 L22.6906083,0.316612766 L22.6906083,12.8497404 Z" id="Fill-3"></path>
                    <path d="M35.2570635,12.8497404 L32.126954,12.8497404 L32.126954,5.52436454 C32.126954,4.79441418 31.9137374,3.04210213 29.8503676,3.04210213 C28.4519869,3.04210213 27.4795142,4.11283972 27.4795142,5.52436454 L27.4795142,12.8497404 L24.3496674,12.8497404 L24.3496674,0.316612766 L27.3374573,0.316612766 L27.3374573,1.53315177 C28.1199519,0.584095035 29.1868228,8.08510638e-05 30.4911991,8.08510638e-05 C33.3601707,8.08510638e-05 35.2570635,2.21472624 35.2570635,5.52436454 L35.2570635,12.8497404 Z" id="Fill-5"></path>
                    <path d="M47.7525821,12.8497404 L44.6223414,12.8497404 L44.6223414,5.52436454 C44.6223414,4.79441418 44.4089934,3.04210213 42.3458862,3.04210213 C40.9475055,3.04210213 39.9749015,4.11283972 39.9749015,5.52436454 L39.9749015,12.8497404 L36.8449234,12.8497404 L36.8449234,0.316612766 L39.8325821,0.316612766 L39.8325821,1.53315177 C40.614814,0.584095035 41.6822101,8.08510638e-05 42.9864551,8.08510638e-05 C45.855558,8.08510638e-05 47.7525821,2.21472624 47.7525821,5.52436454 L47.7525821,12.8497404 Z" id="Fill-7"></path>
                    <path d="M59.9151335,13.3609078 C59.9151335,16.7433121 57.7574967,18.9822128 54.4853304,18.9822128 C51.8059431,18.9822128 49.6006477,17.1816596 49.1739519,14.6021064 L52.4220919,14.6021064 C52.6122013,15.5266383 53.4185908,15.9889716 54.4853304,15.9889716 C56.1926389,15.9889716 56.7854179,14.7479078 56.7854179,13.5801489 L56.7854179,12.1191702 C56.0504508,12.7520993 55.1017418,13.1415319 53.9873435,13.1415319 C51.0000788,13.1415319 49.0078687,10.9272908 49.0078687,7.64123404 L49.0078687,0.316666667 L52.1379781,0.316666667 L52.1379781,7.64123404 C52.1379781,8.34746809 52.3750897,10.0995106 54.414302,10.0995106 C55.8133392,10.0995106 56.7854179,9.05316312 56.7854179,7.64123404 L56.7854179,0.316666667 L59.9151335,0.316666667 L59.9151335,13.3609078 Z" id="Fill-9"></path>
                </g>
            </g>
        </g>
    </g>
</svg>