<?xml version="1.0" encoding="utf-8"?>
<!-- Generator: Adobe Illustrator 19.2.1, SVG Export Plug-In . SVG Version: 6.00 Build 0)  -->
<svg version="1.1" id="Layer_1" xmlns="http://www.w3.org/2000/svg" xmlns:xlink="http://www.w3.org/1999/xlink" x="0px" y="0px"
	 viewBox="0 0 40 32" style="enable-background:new 0 0 40 32;" xml:space="preserve">
<style type="text/css">
	.st0{opacity:0.75;}
</style>
<title>Group 3</title>
<desc>Created with Sketch.</desc>
<g id="Main" class="st0">
	<g id="Pheno-Home-2-Copy" transform="translate(-309.000000, -1272.000000)">
		<g id="Group-3" transform="translate(309.000000, 1272.000000)">
			<path id="Fill-3" d="M14.3,20.8c0,1.9,1.9,1.9,1.9,1.9c1.9,0,1.9-1.9,1.9-1.9V10.2h-2.3V6.7h7.7v14.4c-0.1,1.6,1.3,1.6,1.3,1.6
				c1.5,0,2.2-1.6,2.2-1.6c1.1-2.3,1-4.5,1-4.5c0-3.6-1-6.5-1-6.5h-1.9V6.7h6.3c1.4,3.4,1.5,9.1,1.5,9.1c0.1,7.6-3.6,10.1-3.6,10.1
				c-1.8,1.6-4.4,1.4-4.4,1.4c-2.8,0-4.3-2.4-4.3-2.4c-1.7,2.4-4.7,2.4-4.7,2.4C9,27.3,9,20.7,9,20.7V10.2H6.7V6.7h7.7L14.3,20.8
				L14.3,20.8z"/>
		</g>
	</g>
</g>
</svg>
