<?xml version="1.0" encoding="UTF-8" standalone="no"?>
<svg width="156px" height="50px" viewBox="0 0 156 50" version="1.1" xmlns="http://www.w3.org/2000/svg" xmlns:xlink="http://www.w3.org/1999/xlink">
    <!-- Generator: Sketch 3.6.1 (26313) - http://www.bohemiancoding.com/sketch -->
    <title>Page 1</title>
    <desc>Created with Sketch.</desc>
    <defs>
        <path id="path-1" d="M0,0.891964286 L155.829737,0.891964286 L155.829737,50 L0,50 L0,0.891964286 Z"></path>
        <path id="path-3" d="M0,0.891964286 L155.829737,0.891964286 L155.829737,50 L0,50 L0,0.891964286 Z"></path>
        <path id="path-5" d="M0,0.891964286 L155.829737,0.891964286 L155.829737,50 L0,50 L0,0.891964286 Z"></path>
    </defs>
    <g id="Work" stroke="none" stroke-width="1" fill="none" fill-rule="evenodd">
        <g id="Pheno-Work-MrCooper" transform="translate(-941.000000, -629.000000)">
            <g id="Page-1" transform="translate(941.000000, 629.000000)">
                <path d="M0,29.1661607 C0,22.1375893 4.98486857,17.1938393 11.9041371,17.1938393 C17.4702171,17.1938393 20.9548114,20.7822321 20.9548114,23.8822321 C20.9548114,26.2590179 19.7451429,27.9545536 17.5192457,27.9545536 C15.43776,27.9545536 14.2280914,26.5009821 14.2280914,24.7563393 C14.2280914,23.3483036 15.2933486,22.1866964 16.2124114,21.8000893 C15.5358171,20.7822321 14.1790629,20.0063393 12.0512229,20.0063393 C8.76006857,20.0063393 6.09915429,23.0572321 6.09915429,28.6322321 C6.09915429,33.8179464 8.27602286,36.970625 12.48624,36.970625 C15.1462629,36.970625 17.1796114,35.4188393 18.19584,32.4625893 L21.14736,32.4625893 C20.0821029,37.4063393 16.5975086,40.5099107 11.3256,40.5099107 C4.16118857,40.5099107 0,35.7599107 0,29.1661607" id="Fill-1" fill="#221F20"></path>
                <path d="M23.6647543,28.9238393 C23.6647543,22.0425893 28.4561829,17.1934821 35.2292571,17.1934821 C42.2465829,17.1934821 46.7964343,21.8461607 46.7964343,28.7309821 C46.7964343,35.6122321 42.0050057,40.5095536 35.2292571,40.5095536 C28.1655771,40.5095536 23.6647543,35.8050893 23.6647543,28.9238393 M40.6027886,28.825625 C40.6027886,22.6711607 38.56944,20.100625 35.0358171,20.100625 C31.5030857,20.100625 29.8584,22.7202679 29.8584,28.825625 C29.8584,34.9345536 31.84272,37.5997321 35.4253714,37.5997321 C38.8600457,37.5997321 40.6027886,34.9345536 40.6027886,28.825625" id="Fill-3" fill="#221F20"></path>
                <path d="M49.9427314,28.9238393 C49.9427314,22.0425893 54.73416,17.1934821 61.5072343,17.1934821 C68.52456,17.1934821 73.0744114,21.8461607 73.0744114,28.7309821 C73.0744114,35.6122321 68.2829829,40.5095536 61.5072343,40.5095536 C54.4435543,40.5095536 49.9427314,35.8050893 49.9427314,28.9238393 M66.8807657,28.825625 C66.8807657,22.6711607 64.8474171,20.100625 61.3137943,20.100625 C57.7810629,20.100625 56.1363771,22.7202679 56.1363771,28.825625 C56.1363771,34.9345536 58.1206971,37.5997321 61.7033486,37.5997321 C65.1380229,37.5997321 66.8807657,34.9345536 66.8807657,28.825625" id="Fill-5" fill="#221F20"></path>
                <g id="Group-9">
                    <mask id="mask-2" fill="white">
                        <use xlink:href="#path-1"></use>
                    </mask>
                    <g id="Clip-8"></g>
                    <path d="M74.6234469,46.411875 L78.0590126,46.411875 L78.0590126,21.1672321 L74.6234469,21.1672321 L74.6234469,17.5824107 L83.432544,17.5824107 L83.432544,22.8172321 C84.9818469,19.0359821 87.6418697,17.193125 90.9339154,17.193125 C93.3033326,17.193125 95.1922697,18.0672321 96.6435154,19.5208036 C98.6732983,21.5574107 99.5950354,24.755625 99.5950354,28.4386607 C99.5950354,32.2690179 98.4352869,35.5163393 96.4019383,37.5529464 C94.8526354,39.1011607 92.8683154,40.024375 90.6914469,40.024375 C87.351264,40.024375 84.9818469,38.3288393 83.6741211,36.0502679 L83.6741211,46.411875 L88.1259154,46.411875 L88.1259154,50.0002679 L74.6234469,50.0002679 L74.6234469,46.411875 Z M93.4958811,28.3895536 C93.4958811,23.3020536 91.6105097,20.830625 88.7534811,20.830625 C85.9490469,20.830625 83.432544,24.2708036 83.432544,28.9725893 C83.432544,33.2377679 85.1743954,36.580625 88.7534811,36.580625 C91.8520869,36.580625 93.4958811,33.7225893 93.4958811,28.3895536 L93.4958811,28.3895536 Z" id="Fill-7" fill="#221F20" mask="url(#mask-2)"></path>
                </g>
                <path d="M108.983026,29.3602679 C109.175575,34.8370536 111.450501,37.0665179 115.468169,37.0665179 C118.128192,37.0665179 120.067049,35.9049107 121.275826,33.0433036 L124.178318,33.0433036 C123.067598,37.7933036 119.726523,40.5075893 114.209472,40.5075893 C107.145792,40.5075893 102.981929,35.6620536 102.981929,29.0691964 C102.981929,22.2825893 107.773358,17.1950893 114.307529,17.1950893 C121.371209,17.1950893 124.567872,22.8647321 124.325403,29.3602679 L108.983026,29.3602679 Z M109.032055,26.790625 L118.710295,26.790625 C118.419689,22.4299107 117.066501,20.053125 114.016923,20.053125 C111.257952,20.053125 109.418043,21.846875 109.032055,26.790625 L109.032055,26.790625 Z" id="Fill-10" fill="#221F20"></path>
                <path d="M127.517698,36.4369643 L130.904235,36.4369643 L130.904235,21.1682143 L127.517698,21.1682143 L127.517698,17.5833929 L136.326795,17.5833929 L136.326795,23.0601786 C137.535573,19.1316071 140.343573,17.2423214 143.102544,17.2423214 C145.713538,17.2423214 147.262841,19.1316071 147.262841,21.3155357 C147.262841,23.3021429 145.85795,24.9003571 143.971687,24.9003571 C142.085424,24.9003571 140.631504,23.7869643 140.631504,21.7994643 C140.631504,21.6066071 140.680533,21.3610714 140.729561,21.1682143 C138.93779,21.1682143 137.388487,23.2039286 136.568373,26.0164286 L136.568373,36.4369643 L140.77859,36.4369643 L140.77859,40.0253571 L127.517698,40.0253571 L127.517698,36.4369643 Z" id="Fill-12" fill="#221F20"></path>
                <g id="Group-16">
                    <mask id="mask-4" fill="white">
                        <use xlink:href="#path-3"></use>
                    </mask>
                    <g id="Clip-15"></g>
                    <path d="M39.5362834,9.25973214 C38.6047406,11.5775893 37.3852663,12.4811607 36.1497463,12.4811607 C34.849152,12.4811607 34.0094263,11.6365179 34.0094263,10.2383036 C34.0094263,7.829375 35.5943863,5.44544643 35.5943863,3.80883929 C35.5943863,3.25258929 35.3554834,3.01330357 34.9472091,3.01330357 C33.888192,3.01330357 31.7960091,4.84366071 29.8714149,12.2391964 L27.0339977,12.2391964 L28.7170149,5.87758929 C28.9327406,5.085625 29.0539749,4.50616071 29.0539749,4.048125 C29.0539749,3.47133929 28.8614263,3.01330357 28.3319177,3.01330357 C27.2265463,3.01330357 25.1575406,4.84366071 23.2329463,12.2391964 L20.3465006,12.2391964 L22.4155063,4.43383929 C22.774752,3.05883929 22.7034377,2.67580357 22.2719863,2.67580357 C21.8235977,2.67580357 21.333312,3.34723214 20.7913234,4.391875 L19.6306834,3.92669643 C20.5818377,2.00794643 21.6898834,0.917767857 23.111712,0.917767857 C24.147552,0.917767857 24.8669349,1.66419643 24.8669349,3.15705357 C24.8669349,3.854375 24.7234149,4.72223214 24.3632777,5.83205357 L24.5299749,5.904375 C26.1185006,2.50616071 27.9004663,0.891875 29.5344549,0.891875 C30.8582263,0.891875 31.554432,1.78205357 31.554432,3.229375 C31.554432,3.90348214 31.3618834,4.72223214 31.0017463,5.83205357 L31.1684434,5.904375 C32.7569691,2.50616071 34.5389349,0.891875 36.2451291,0.891875 C37.5689006,0.891875 38.4086263,1.95258929 38.4086263,3.39991071 C38.4086263,5.44544643 36.6302263,8.529375 36.6302263,9.99991071 C36.6302263,10.3597321 36.7746377,10.5302679 37.039392,10.5302679 C37.463712,10.5302679 37.8924891,9.98026786 38.4050606,8.804375 L39.5362834,9.25973214 Z" id="Fill-14" fill="#221F20" mask="url(#mask-4)"></path>
                </g>
                <path d="M40.7541531,3.861875 C41.6990674,1.98241071 42.7937417,0.915446429 44.2021989,0.915446429 C45.2389303,0.915446429 45.9574217,1.66544643 45.9574217,3.15830357 C45.9574217,3.855625 45.8139017,4.70026786 45.4769417,5.75741071 L45.6703817,5.83241071 C47.0654674,2.65026786 48.2198674,0.892232143 49.9028846,0.892232143 C50.9128731,0.892232143 51.6581074,1.58955357 51.6581074,2.72258929 C51.6581074,3.92705357 50.889696,4.893125 49.928736,4.893125 C49.0854446,4.893125 48.4355931,4.336875 48.4846217,3.32526786 C47.788416,3.61633929 46.0554789,5.66276786 44.3234331,12.2395536 L41.4369874,12.2395536 L43.5059931,4.43508929 C43.8661303,3.06008929 43.7939246,2.67705357 43.3624731,2.67705357 C42.9247817,2.67705357 42.4443017,3.32169643 41.9174674,4.32705357 L40.7541531,3.861875 Z" id="Fill-17" fill="#221F20"></path>
                <path d="M49.0360594,10.9140179 C49.0360594,9.95151786 49.7581166,8.89080357 50.8857737,8.89080357 C51.8012709,8.89080357 52.5010423,9.54258929 52.5010423,10.5997321 C52.5010423,11.5658036 51.7780937,12.6229464 50.6477623,12.6229464 C49.7322651,12.6229464 49.0360594,11.9747321 49.0360594,10.9140179" id="Fill-19" fill="#221F20"></path>
                <g id="Group-23">
                    <mask id="mask-6" fill="white">
                        <use xlink:href="#path-5"></use>
                    </mask>
                    <g id="Clip-22"></g>
                    <path d="M149.547929,19.3824107 L149.796638,19.3824107 C150.054261,19.8895536 150.319015,20.0895536 150.714809,20.0895536 C151.025026,20.0895536 151.228272,19.9422321 151.228272,19.6315179 C151.228272,19.3002679 150.924295,19.2154464 150.502649,19.1172321 C150.044455,18.9958036 149.583586,18.8484821 149.583586,18.2958036 C149.583586,17.8636607 149.933918,17.5065179 150.466101,17.5065179 C150.734421,17.5065179 150.979563,17.624375 151.136455,17.8109821 L151.228272,17.5225893 L151.476089,17.5225893 L151.476089,18.4359821 L151.238078,18.4359821 C151.025026,17.9386607 150.770078,17.761875 150.456295,17.761875 C150.198672,17.761875 149.979381,17.9029464 149.979381,18.1940179 C149.979381,18.5440179 150.299403,18.6199107 150.679152,18.7109821 C151.181918,18.8288393 151.613369,18.9600893 151.613369,19.5100893 C151.613369,19.9877679 151.238078,20.3484821 150.705003,20.3484821 C150.365369,20.3484821 150.100615,20.230625 149.907175,20.0172321 L149.812683,20.3386607 L149.547929,20.3386607 L149.547929,19.3824107 Z M152.035015,20.0270536 L152.440615,20.0270536 L152.440615,17.8466964 L152.035015,17.8466964 L152.035015,17.5788393 L153.201895,17.5886607 L153.917712,19.6672321 L153.956935,19.6672321 L154.699495,17.5886607 L155.829826,17.5886607 L155.829826,17.8466964 L155.415312,17.8466964 L155.415312,20.0270536 L155.829826,20.0270536 L155.829826,20.2922321 L154.627289,20.2922321 L154.627289,20.0270536 L154.947312,20.0270536 L154.947312,17.9583036 L154.866192,17.9583036 L154.003289,20.2922321 L153.689506,20.2922321 L152.846215,17.9583036 L152.754398,17.9583036 L152.754398,20.0270536 L153.101163,20.0270536 L153.101163,20.2922321 L152.035015,20.2922321 L152.035015,20.0270536 Z" id="Fill-21" fill="#221F20" mask="url(#mask-6)"></path>
                </g>
            </g>
        </g>
    </g>
</svg>