<?xml version="1.0" encoding="utf-8"?>
<!-- Generator: Adobe Illustrator 19.2.1, SVG Export Plug-In . SVG Version: 6.00 Build 0)  -->
<svg version="1.1" id="Layer_1" xmlns="http://www.w3.org/2000/svg" xmlns:xlink="http://www.w3.org/1999/xlink" x="0px" y="0px"
	 viewBox="0 0 324 18" style="enable-background:new 0 0 324 18;" xml:space="preserve">
<style type="text/css">
	.st0{filter:url(#Adobe_OpacityMaskFilter);}
	.st1{fill:#FFFFFF;}
	.st2{mask:url(#mask-2);fill:#333333;}
</style>
<title>Page 1</title>
<desc>Created with Sketch.</desc>
<g id="Work">
	<g id="Pheno-Work-MensWearhouse" transform="translate(-942.000000, -633.000000)">
		<g id="Page-1" transform="translate(942.000000, 633.000000)">
			<g id="Clip-2">
			</g>
			<defs>
				<filter id="Adobe_OpacityMaskFilter" filterUnits="userSpaceOnUse" x="0" y="0.5" width="323.6" height="17.5">
					<feColorMatrix  type="matrix" values="1 0 0 0 0  0 1 0 0 0  0 0 1 0 0  0 0 0 1 0"/>
				</filter>
			</defs>
			<mask maskUnits="userSpaceOnUse" x="0" y="0.5" width="323.6" height="17.5" id="mask-2">
				<g class="st0">
					<path id="path-1" class="st1" d="M0,0.5h323.6V18H0V0.5z"/>
				</g>
			</mask>
			<path id="Fill-1" class="st2" d="M319.7,7.7c-1.9,0-3.4-1.5-3.4-3.4c0-1.9,1.5-3.4,3.4-3.4c1.9,0,3.4,1.5,3.4,3.4
				C323.1,6.2,321.6,7.7,319.7,7.7L319.7,7.7z M319.7,0.5c-2.1,0-3.8,1.7-3.8,3.8c0,2.1,1.7,3.8,3.8,3.8c2.1,0,3.8-1.7,3.8-3.8
				C323.6,2.2,321.8,0.5,319.7,0.5L319.7,0.5z M192.2,9c-0.5,0.1-1,0.2-1.4,0.2c-0.6,0-1.2,0-1.7-0.1c-0.2,0-0.2-0.1-0.2-0.4V2.3
				c0-0.4,0-0.3,0.1-0.3c0.8,0,1.1,0,2,0.1c1.9,0.1,3.2,1.2,3.2,3.6C194.1,6.9,193.6,8.6,192.2,9L192.2,9z M198.5,16.6
				c-0.9,0-1-0.1-1.3-0.6c-1.1-1.7-1.5-2.3-2.2-3.4c-0.6-1-1.2-1.8-1.8-2.8c2.3-0.2,4.1-1.8,4.1-4.2c0-3.1-2.6-4.6-5.6-4.6
				c-1.3,0-3,0.1-4.3,0.1c-1.1,0-1.8-0.1-2.9-0.1c-0.2,0-0.4,0.2-0.4,0.4c0,0.1,0,0.2,0.1,0.3c0.1,0.1,0.2,0.1,0.3,0.1h0.9
				c0.3,0,0.5,0.3,0.5,1.1v12.6c0,1-0.1,1.1-0.4,1.1h-0.9c-0.2,0-0.4,0.2-0.4,0.4c0,0.1,0,0.2,0.1,0.3c0.1,0.1,0.2,0.1,0.3,0.1
				c1.1,0,1.8-0.1,2.9-0.1c1,0,1.6,0,2.6,0.1c0.1,0,0.2,0,0.3-0.1c0.1-0.1,0.2-0.2,0.1-0.3c0-0.2-0.2-0.4-0.4-0.4
				c-0.3,0-0.6,0-0.9-0.1c-0.4,0-0.4-0.2-0.4-0.9v-5.3c0.1-0.4,0-0.3,0.2-0.3c0.2,0,0.5,0.1,0.7,0.2c0.7,0.4,1.1,0.8,2.4,3
				c0.9,1.5,2.2,3.7,2.5,4.2l0.1,0.1l0.1,0c0.5,0,1.3-0.1,2.1-0.1c0.4,0,0.8,0,1.1,0c0.2,0,0.3,0,0.6,0c0.1,0,0.2,0,0.3-0.1
				c0.1-0.1,0.1-0.2,0.1-0.3C199,16.7,198.7,16.6,198.5,16.6L198.5,16.6z M171.6,10.8c-1.3,0-2.2,0-3.6,0c-0.4,0-1,0-1.4,0
				c0.4-0.9,0.9-2.4,1.6-3.8c0.3-0.6,0.7-1.3,0.9-1.8c0.1,0.2,0.2,0.3,0.2,0.4c0.9,1.9,1.3,2.9,2.2,4.8
				C171.5,10.6,171.5,10.7,171.6,10.8L171.6,10.8z M178,16.6c-0.5-0.1-0.7-0.3-1.3-1.4c-0.9-1.7-1.7-3.9-2.8-6.4
				c-1.3-2.9-2.4-5.3-3.2-7.6c0-0.2-0.2-0.5-0.5-0.5c-0.3,0-0.4,0.3-0.5,0.4c-1.3,3.2-2.1,4.9-3.5,8c-1.2,2.5-2.7,6.2-2.9,6.6
				c-0.1,0.3-0.3,0.5-0.4,0.7c-0.3,0-0.5,0.1-0.8,0.1c-0.2,0-0.4,0.1-0.4,0.4c0,0.1,0,0.2,0.1,0.3c0.1,0.1,0.2,0.1,0.3,0.1
				c0.9,0,1.4-0.1,2.2-0.1c0.8,0,1.3,0.1,2.2,0.1c0.2,0,0.4-0.2,0.4-0.4c0-0.2-0.2-0.4-0.4-0.4c-0.3,0-0.7-0.1-0.9-0.1
				c-0.1-0.2-0.2-0.4-0.2-0.8c0-0.2,0-0.5,0-0.8c0.2-1.2,0.2-1.7,0.6-2.7l0.1-0.4h5.8l0.3,0.6c0.6,1.2,0.9,1.9,1.4,3.3
				c0.1,0.2,0.1,0.4,0.1,0.5c0,0.2,0,0.3-0.3,0.4c-0.1,0.1-0.3,0.1-0.5,0.1c-0.1,0-0.2,0-0.3,0.1c-0.1,0.1-0.1,0.2-0.1,0.3
				c0,0.1,0,0.2,0.1,0.3c0.1,0.1,0.2,0.1,0.3,0.1c1.1,0,1.7-0.1,2.8-0.1c0.8,0,1.2,0.1,2.2,0.1c0.1,0,0.2,0,0.3-0.1
				c0.1-0.1,0.2-0.2,0.1-0.3C178.4,16.7,178.1,16.6,178,16.6L178,16.6z M223.7,1.8h0.7c0.2,0,0.4-0.2,0.4-0.4c0-0.1,0-0.2-0.1-0.3
				c-0.1-0.1-0.2-0.1-0.3-0.1c-1.1,0-1.7,0.1-2.7,0.1c-1,0-1.6-0.1-2.6-0.1c-0.2,0-0.4,0.2-0.4,0.4c0,0.1,0.1,0.4,0.4,0.4h0.7
				c0.3,0,0.7,0.4,0.7,1.1l0,5.1h-9V2.9c0-0.7,0.4-1.1,0.7-1.1h0.7c0.2,0,0.4-0.2,0.4-0.4c0-0.2-0.1-0.4-0.4-0.4
				c-1.2,0-1.8,0.1-2.9,0.1c-1,0-1.5-0.1-2.5-0.1c-0.2,0-0.4,0.2-0.4,0.4c0,0.1,0.1,0.4,0.4,0.4h0.7c0.2,0,0.5,0.3,0.5,1.1v12.4
				c0,1.1-0.2,1.3-0.5,1.3c-0.3,0-0.5,0-0.8,0c-0.2,0-0.4,0.2-0.4,0.4c0,0.2,0.1,0.4,0.4,0.4c1,0,1.6-0.1,2.6-0.1
				c1.1,0,1.7,0.1,2.9,0.1c0.2,0,0.4-0.2,0.4-0.4c0-0.2-0.2-0.4-0.4-0.4c-0.3,0-0.5,0-0.7,0c-0.3,0-0.5-0.2-0.5-1.3V9h9v6.3
				c0,1-0.4,1.3-0.7,1.3c-0.3,0-0.4,0-0.7,0c-0.2,0-0.4,0.2-0.4,0.4c0,0.1,0.1,0.4,0.4,0.4c1,0,1.6-0.1,2.6-0.1
				c1.1,0,1.7,0.1,2.7,0.1c0.2,0,0.4-0.2,0.4-0.4c0-0.1,0-0.2-0.1-0.3c-0.1-0.1-0.2-0.1-0.3-0.1c-0.3,0-0.4,0-0.7,0
				c-0.3,0-0.5-0.3-0.5-1.2l0-12.4C223.2,2.1,223.4,1.8,223.7,1.8L223.7,1.8z M312.9,12.5C312.9,12.5,312.8,12.5,312.9,12.5
				c-0.3,0-0.4,0.2-0.5,0.4c-0.3,1.1-0.2,0.7-0.5,1.4c-0.4,0.4-1.4,1.2-2.1,1.5c-0.8,0.3-2.2,0.7-5.2,0.7c-0.6,0-0.8-0.4-0.8-0.9
				V9.5h1.7c1.4,0,2.1,0.4,2.5,1v1.3c0,0.2,0.2,0.5,0.4,0.5c0.1,0,0.2,0,0.3-0.1c0.1-0.1,0.1-0.2,0.1-0.3V6.2c0-0.1,0-0.2-0.1-0.3
				c-0.1-0.1-0.2-0.2-0.3-0.2c-0.1,0-0.2,0.1-0.3,0.2c-0.1,0.1-0.1,0.2-0.1,0.3v0.9c-0.5,0.9-1.3,1.5-2.5,1.5c-0.3,0-1.4,0-1.5,0
				c-0.1,0-0.1,0-0.1,0c0,0,0-0.1,0-0.3V2.9c0-0.6,0.2-1,0.8-1h1.9c1.7,0,3.5,0.8,4.5,1.9l0.2,0.2c0.2,0.5,0.4,1.4,0.5,1.6
				c0,0.1,0.1,0.3,0.4,0.3c0,0,0,0,0.1,0c0.2,0,0.4-0.2,0.3-0.4c0,0,0,0,0-0.1c-0.3-1.7-0.5-2.7-0.6-4.4c0-0.2-0.2-0.5-0.5-0.5
				c-0.3,0-0.5,0.3-0.5,0.5c-0.1,0-0.2,0-0.5,0h-10.7c-0.2,0-0.4,0.2-0.4,0.4c0,0.1,0,0.2,0.1,0.3c0.1,0.1,0.2,0.1,0.3,0.1h0.7
				c0.3,0,0.5,0.3,0.5,1.1v12.4c0,1.1-0.2,1.3-0.5,1.3c-0.3,0-0.5,0-0.8,0c-0.2,0-0.4,0.2-0.4,0.4c0,0.2,0.1,0.4,0.4,0.4
				c0.4,0,1.8,0,3.4,0c0.8,0,1.6,0,2.4,0c1.1,0,2.6,0,3.8,0.1c0.6,0,1.1,0,1.5,0.1c0.2,0,0.3,0,0.4,0c0,0.2,0.3,0.4,0.4,0.4
				c0,0,0,0,0.1,0c0.2,0,0.4-0.1,0.5-0.4c0.3-1.9,0.6-2.7,1-4.4c0-0.1,0-0.1,0-0.2C313.2,12.8,313.1,12.5,312.9,12.5L312.9,12.5z
				 M273.5,1.1c-0.9,0-1.3,0.1-2.1,0.1c-0.9,0-1.4-0.1-2.3-0.1c-0.1,0-0.2,0-0.3,0.1c-0.1,0.1-0.1,0.2-0.1,0.3c0,0.1,0,0.2,0.1,0.3
				c0.1,0.1,0.2,0.1,0.3,0.1c0.3,0,0.7,0.1,1.1,0.1c0.6,1.5,0.7,2.7,0.7,9v0.4c0,3.2-1.7,5.3-5.2,5.3c-3.6,0-4.8-2.1-4.8-5.1V2.9
				c0-0.7,0.4-1.1,0.7-1.1h0.7c0.2,0,0.4-0.2,0.4-0.4c0-0.2-0.1-0.4-0.4-0.4c-1.1,0-1.7,0.1-2.8,0.1c-1,0-1.7-0.1-2.6-0.1
				c-0.2,0-0.4,0.2-0.4,0.4c0,0.2,0.1,0.4,0.4,0.4h0.7c0.2,0,0.5,0.4,0.5,1.1v8.5c0,2.2,0.7,3.8,2,4.7c1.3,1,3.1,1.4,5.4,1.4h0
				c2.2,0,3.8-0.6,4.8-1.7c1-1.1,1.5-2.7,1.5-4.6v-0.4c0-6.5,0.3-7.9,0.8-9c0.4,0,0.7-0.1,1.1-0.1c0.2,0,0.4-0.2,0.4-0.4
				C274,1.2,273.8,1.1,273.5,1.1L273.5,1.1z M240.9,16.7c-3.8,0-5.9-2.9-5.9-7.6c0-4.6,2-7.4,5.8-7.4c3.9,0,5.9,2.8,5.9,7.4
				C246.6,13.4,244.8,16.7,240.9,16.7L240.9,16.7z M240.7,0.8c-4.6,0-9,2.9-9,8.3c0,5.4,4.3,8.5,9.1,8.5c4.8,0,9-3.2,9-8.5
				C249.8,3.8,245.5,0.8,240.7,0.8L240.7,0.8z M288.5,8l-4-0.9c-1.2-0.3-2.2-1-2.2-2.5c0-1.5,1.5-2.9,3.6-2.9c2.1,0,3.9,1.4,4.6,3.4
				c0.1,0.3,0.1,0.5,0.2,0.8c0,0.2,0.2,0.4,0.4,0.4c0.2,0,0.4-0.2,0.4-0.4c0,0,0,0,0-0.1c-0.1-0.3-0.2-1.1-0.3-2.1
				c-0.1-0.8-0.2-1.6-0.2-2.3c0-0.3-0.2-0.4-0.4-0.4c-0.2,0-0.4,0.2-0.4,0.3c-0.8-0.2-2.2-0.4-4.1-0.4c-2.9,0-5.6,1.8-5.6,5.1
				c0,2.6,1.5,4.1,3.7,4.6l3.8,0.8c1.6,0.3,2.2,1,2.2,2.4c0,1.7-1.6,3-3.8,3c-2.8,0-4-1.9-4.6-3.4c-0.1-0.4-0.1-0.8-0.1-1.3
				c0-0.3-0.3-0.4-0.4-0.4c-0.2,0-0.4,0.2-0.4,0.4c0,0,0,0.1,0,0.1c0,0.6,0.1,1.5,0.1,2.5c0,0.4,0,0.8,0,1.2c0,0.4,0,0.8,0,1.2
				c0,0.1,0,0.3,0.1,0.3c0.1,0.1,0.2,0.1,0.3,0.1c0.2,0,0.4-0.2,0.4-0.3c0-0.1,0-0.1,0.1-0.2c1.4,0.3,2.7,0.6,4.7,0.6
				c2.9,0,5.9-1.8,5.9-5.4C292.3,9.6,290.6,8.4,288.5,8L288.5,8z M156.2,12.5C156.2,12.5,156.2,12.5,156.2,12.5
				c-0.3,0-0.4,0.2-0.5,0.4c-0.3,1.1-0.2,0.7-0.5,1.4c-0.4,0.4-1.4,1.2-2.1,1.5c-0.8,0.3-2.2,0.7-5.2,0.7c-0.6,0-0.8-0.4-0.8-0.9
				V9.5h0.3c0.8,0,0.4,0,1.4,0c1.4,0,2.1,0.4,2.5,1v1.3c0,0.2,0.2,0.5,0.4,0.5c0.1,0,0.2,0,0.3-0.1c0.1-0.1,0.1-0.2,0.1-0.3V6.2
				c0-0.1,0-0.2-0.1-0.3c-0.1-0.1-0.2-0.2-0.3-0.2c-0.1,0-0.2,0.1-0.3,0.2c-0.1,0.1-0.1,0.2-0.1,0.3v0.9c-0.5,0.9-1.3,1.5-2.5,1.5
				h-1.5c-0.1,0-0.1,0-0.1,0c0,0,0-0.1,0-0.3V2.9c0-0.6,0.2-1,0.8-1h2c1.7,0,3.5,0.8,4.5,1.9l0.2,0.2c0.2,0.5,0.4,1.4,0.5,1.6
				c0,0.1,0.1,0.3,0.4,0.3c0,0,0,0,0.1,0c0.2,0,0.4-0.2,0.3-0.4c0,0,0-0.1,0-0.1c-0.3-1.7-0.5-2.7-0.6-4.4c0-0.2-0.2-0.5-0.5-0.5
				c-0.3,0-0.5,0.3-0.5,0.5c-0.1,0-0.2,0-0.5,0h-10.7c-0.2,0-0.4,0.2-0.4,0.4c0,0.1,0,0.2,0.1,0.3c0.1,0.1,0.2,0.1,0.3,0.1h0.7
				c0.2,0,0.5,0.3,0.5,1.1v12.4c0,1.1-0.2,1.3-0.5,1.3H143c-0.2,0-0.4,0.2-0.4,0.4c0,0.1,0.1,0.4,0.4,0.4c0.4,0,1.8,0,3.4,0
				c0.8,0,1.6,0,2.4,0c1.1,0,2.6,0,3.8,0.1c0.6,0,1.1,0,1.5,0.1c0.2,0,0.3,0,0.4,0c0,0.2,0.3,0.4,0.4,0.4c0,0,0,0,0.1,0
				c0.2,0,0.4-0.1,0.5-0.4c0.3-1.9,0.6-2.7,1.1-4.4c0-0.1,0-0.1,0-0.2C156.6,12.7,156.5,12.5,156.2,12.5L156.2,12.5z M43.4,12.5
				C43.4,12.5,43.3,12.5,43.4,12.5c-0.3,0-0.4,0.2-0.5,0.4c-0.3,1.1-0.2,0.7-0.5,1.4c-0.4,0.4-1.4,1.2-2.1,1.5
				c-0.8,0.3-2.2,0.7-5.2,0.7c-0.6,0-0.8-0.4-0.8-0.9V9.5H36c1.4,0,2.1,0.4,2.5,1v1.3c0,0.2,0.2,0.5,0.4,0.5c0.1,0,0.2,0,0.3-0.1
				c0.1-0.1,0.1-0.2,0.1-0.3V6.2c0-0.1,0-0.2-0.1-0.3c-0.1-0.1-0.2-0.2-0.3-0.2c-0.1,0-0.2,0-0.3,0.2c-0.1,0.1-0.1,0.2-0.1,0.3v0.9
				C38.1,8,37.3,8.6,36,8.6h-1.5c-0.1,0-0.1,0-0.1,0l0,0c0,0,0-0.1,0-0.3V2.9c0-0.6,0.2-1,0.8-1h2c1.7,0,3.5,0.8,4.5,1.9L41.8,4
				c0.2,0.5,0.4,1.4,0.5,1.6c0,0.1,0.1,0.3,0.4,0.3c0,0,0,0,0.1,0c0.2,0,0.4-0.2,0.3-0.4c0,0,0-0.1,0-0.1c-0.3-1.7-0.5-2.7-0.6-4.4
				c0-0.2-0.2-0.5-0.5-0.5c-0.3,0-0.5,0.3-0.5,0.5c-0.1,0-0.2,0-0.5,0H30.2c-0.2,0-0.4,0.2-0.4,0.4c0,0.1,0,0.2,0.1,0.3
				c0.1,0.1,0.2,0.1,0.3,0.1h0.7c0.2,0,0.5,0.3,0.5,1.1v12.4c0,1.1-0.2,1.3-0.5,1.3h-0.8c-0.2,0-0.4,0.2-0.4,0.4
				c0,0.1,0.1,0.4,0.4,0.4c0.4,0,1.8,0,3.4,0c0.8,0,1.6,0,2.4,0c1.1,0,2.6,0,3.8,0.1c0.6,0,1.1,0,1.5,0.1c0.2,0,0.3,0,0.4,0
				c0,0.2,0.2,0.4,0.4,0.4c0,0,0,0,0.1,0c0.2,0,0.4-0.1,0.5-0.4c0.3-1.9,0.6-2.7,1-4.4c0-0.1,0-0.1,0-0.2
				C43.7,12.7,43.6,12.5,43.4,12.5L43.4,12.5z M76.1,0.9c-0.8,0-1.5,0.6-1.5,1.4c0,0.8,0.5,1.5,1.3,1.5c0.3,0,0.5-0.1,0.7-0.1
				c-0.1,0.5-0.5,1.2-1.3,2c-0.1,0.1-0.1,0.2-0.1,0.3c0,0.1,0,0.2,0.1,0.2c0.1,0.1,0.2,0.2,0.3,0.2h0c0.1,0,0.2,0,0.2-0.1
				c1.2-1.1,2-2,2-3.7C77.8,1.6,77.1,0.9,76.1,0.9L76.1,0.9z M21.8,0.9c-0.8,0-1.3,0-1.9,0c-0.3,0-0.6,0-1,0l-0.7,0l-0.1,0L18,1
				c-1.4,2.4-2.2,3.8-3.7,6.2c-1,1.7-1.7,2.7-2.7,4.2c-1.4-2-2.3-3.2-3.6-5.2C6.6,4.2,5.8,3,4.6,0.9L4.5,0.8L1.7,0.9H0.4
				C0.3,0.9,0,1,0,1.2c0,0.1,0,0.2,0.1,0.3c0.1,0.1,0.2,0,0.2,0.1c0.2,0,0.4,0,0.7,0.1c0.1,0,1.1,0.9,1.4,1.3v2.9
				c0,3-0.1,5.6-0.3,7.5c-0.1,1.8-0.4,3-0.6,3.3c-0.4,0-0.8,0.1-1.1,0.1C0.3,16.7,0,16.8,0,17c0,0.2,0.3,0.3,0.4,0.3
				c1,0,1.5-0.1,2.5-0.1c1,0,1.5,0.1,2.5,0.1c0.2,0,0.4-0.1,0.4-0.4c0-0.3-0.3-0.4-0.4-0.4c-0.4,0-0.7-0.1-1.2-0.1
				c-0.6-1-0.8-6.3-0.9-10.2c0-0.4,0-0.9,0-1.3c0-0.4,0-0.8,0-1.1l0.2,0.3c0.7,1,3.8,5.7,6.3,9.7c0.2,0.2,0.3,0.5,0.6,0.5
				c0.3,0,0.4-0.2,0.6-0.5c0.2-0.4,2.4-3.9,3.9-6.4c1-1.7,1.7-2.7,2.6-4.3c0,1.2,0.1,3.4,0.1,5.3c0,2.5,0,5.8,0,6.4
				c0,1.3-0.3,1.4-0.8,1.6c-0.3,0-0.5,0.1-0.8,0.1c-0.2,0-0.4,0.1-0.4,0.4c0,0.1,0,0.2,0.1,0.3c0.1,0.1,0.2,0.1,0.3,0.1
				c1.1,0,1.7-0.1,2.8-0.1c1.1,0,1.7,0.1,2.8,0.1c0.2,0,0.4-0.1,0.4-0.3c0-0.1,0-0.2-0.1-0.3c-0.1-0.1-0.2-0.1-0.3-0.1
				c-0.3,0-0.4,0-0.7-0.1c-0.5-0.1-0.7-0.5-0.7-0.9c0-0.5,0-2.9,0-5.3c0-0.6,0-1.2,0-1.8c0-2.3,0.1-5.2,0.1-5.8
				c0-0.5,0.4-1.1,0.7-1.2c0.3-0.1,0.4-0.1,0.7-0.1c0.1,0,0.4-0.1,0.4-0.3c0-0.1,0-0.2-0.1-0.3C21.9,0.9,21.9,0.9,21.8,0.9L21.8,0.9
				z M69.2,1.1c-0.9,0-1.3,0.1-2,0.1c-0.8,0-1.1-0.1-2-0.1c-0.2,0-0.4,0.2-0.4,0.4c0,0.1,0,0.2,0.1,0.3c0.1,0.1,0.2,0.1,0.3,0.1
				c0.3,0,0.6,0,0.9,0.1c0,0,0,0,0,0c0.4,0.9,0.7,6.6,0.7,9.7v1.3L55.7,1.1l-0.1,0c0,0-1.1,0-1.8,0c-0.8,0-1.2,0-2,0
				c-0.2,0-0.4,0.2-0.4,0.4c0,0.1,0,0.2,0.1,0.3c0.1,0.1,0.2,0.1,0.3,0.1h0.4c0.2,0,0.3,0,1.3,1.2v3.7c0,2.6-0.1,5.1-0.2,6.9
				c-0.1,0.9-0.1,1.6-0.2,2.2c0,0.3-0.1,0.5-0.1,0.6c0,0.1,0,0.1-0.1,0.2c0,0,0,0,0,0c-0.3,0-0.5,0-0.8,0c-0.2,0-0.4,0.2-0.4,0.4
				c0,0.2,0.2,0.4,0.4,0.4c0.8,0,1.2,0,2,0c0.8,0,1.5,0,2.1,0c0.2,0,0.4-0.2,0.4-0.4c0-0.2-0.2-0.4-0.4-0.4c-0.3,0-0.6,0-0.9-0.1
				c0,0-0.1-0.1-0.1-0.3c-0.5-1.5-0.8-7.1-0.8-9.5V3.8c10.6,11.4,10.3,11.1,12.5,13.5l0.1,0.1H67c0,0,0.1,0,0.1,0
				c0.1,0,0.2,0,0.3-0.1c0.1-0.1,0.2-0.2,0.2-0.4v-6.5c0-6.6,0.5-8.2,0.8-8.5c0.4,0,0.6,0,0.9,0c0.2,0,0.4-0.2,0.4-0.4
				C69.7,1.3,69.5,1.1,69.2,1.1L69.2,1.1z M136.6,1c-1,0-1.1,0.1-2.1,0.1c-0.9,0-1.5-0.1-2.5-0.1c-0.2,0-0.4,0-0.5,0.4
				c0,0.3,0.4,0.4,0.5,0.4c0.3,0,0.8,0,1.2,0.1c0,0.1,0.1,0.3,0.1,0.6c0,0.4,0,0.7-0.1,1.2c-0.3,1.6-0.9,3-1.7,4.8
				c-1.5,3.2-2.3,4.8-2.7,5.6c-1.7-3.3-4.8-10.1-5.1-11.2c0-0.2-0.1-0.3-0.1-0.4c0-0.4,0.1-0.5,0.5-0.7c0.2-0.1,0.4-0.1,0.6-0.1
				c0.2,0,0.4-0.1,0.4-0.4c0-0.3-0.3-0.4-0.4-0.4c-1.2,0-1.9,0.1-3.1,0.1c-1.2,0-1.9-0.1-2.9-0.1c-0.2,0-0.4,0.1-0.5,0.4
				c0,0.3,0.3,0.4,0.5,0.4c0.1,0,0.4,0,0.6,0.1c0.7,0.1,1.1,0.6,1.5,1.4c0.9,1.8,1.8,4,3.1,6.5l0,0.1c-0.2,0.3-0.6,1.3-1,1.9
				c-0.4,0.7-1,1.7-1.3,2.3c-2.1-3.9-4-8.3-5.1-11.1c-0.1-0.2-0.1-0.3-0.1-0.4c0-0.3,0.2-0.5,0.6-0.6c0.2-0.1,0.4-0.1,0.6-0.1
				c0.2,0,0.4-0.1,0.4-0.4c-0.1-0.4-0.4-0.3-0.5-0.3c-1.2,0-1.9,0.1-3.1,0.1c-1.2,0-1.9-0.1-3-0.1C111.3,1,111,1,111,1.3
				c0,0.3,0.3,0.4,0.5,0.4c0.3,0,0.5,0,0.7,0.1c0.7,0.2,0.9,0.6,1.4,1.5c1,1.7,1.9,4,3.1,6.6c1.4,3,2.4,5.2,3.2,7.3
				c0.3,0.7,0.4,0.9,0.7,1c0,0,0,0,0,0c0.3-0.1,0.3-0.3,0.4-0.4c0.1-0.2,0.2-0.4,0.2-0.4c1.2-2.5,1.5-3.2,2.9-5.8l0.3-0.5l0.5,1
				c1,2.2,1.3,3,2.3,5.4c0.2,0.4,0.2,0.7,0.6,0.8c0,0,0,0,0.1,0l0.2,0v-0.1c0,0,0-0.1,0.1-0.1c0.2-0.2,0.4-0.7,0.5-0.9
				c1.5-3.3,2-4.3,3.5-7.5c1.2-2.6,3.1-6.4,3.3-6.8c0.2-0.3,0.5-0.7,0.5-0.7c0,0,0,0,0,0c0.1-0.1,0.5-0.2,0.8-0.2
				c0.1,0,0.2,0,0.3-0.1c0.1-0.1,0.1-0.2,0.1-0.3C137,1,136.7,1,136.6,1L136.6,1z M91.5,8l-4-0.9c-1.2-0.3-2.2-1-2.2-2.5
				c0-1.5,1.5-2.9,3.6-2.9c2.1,0,3.9,1.4,4.6,3.4c0.1,0.3,0.1,0.5,0.2,0.8c0,0.2,0.2,0.4,0.4,0.4c0.2,0,0.4-0.2,0.4-0.4
				c0,0,0,0,0-0.1c-0.1-0.3-0.2-1.1-0.3-2.1C94.1,2.9,94,2.1,94,1.4c0-0.3-0.2-0.4-0.4-0.4c-0.3,0-0.4,0.2-0.4,0.3
				c-0.8-0.2-2.2-0.4-4.1-0.4c-2.9,0-5.6,1.8-5.6,5.1c0,2.6,1.5,4.1,3.7,4.6l3.8,0.8c1.6,0.3,2.2,1,2.2,2.4c0,1.7-1.6,3-3.8,3
				c-2.8,0-4-1.9-4.6-3.4c-0.1-0.4-0.1-0.8-0.1-1.3c0-0.3-0.3-0.4-0.4-0.4c-0.2,0-0.4,0.2-0.4,0.4c0,0,0,0.1,0,0.1
				c0,0.6,0.1,1.5,0.2,2.5c0,0.4,0,0.8,0,1.2c0,0.4,0,0.8,0,1.2c0,0.1,0,0.3,0.1,0.3c0.1,0.1,0.2,0.1,0.3,0.1c0.2,0,0.4-0.2,0.4-0.3
				c0-0.1,0-0.1,0.1-0.2c1.4,0.3,2.7,0.6,4.6,0.6h0c2.9,0,5.9-1.8,5.9-5.4C95.3,9.6,93.6,8.4,91.5,8L91.5,8z M320.5,3.9
				c-0.1,0.1-0.3,0.1-0.6,0.1h-1.2V2.7h1.2c0.2,0,0.3,0,0.4,0.1c0.2,0.1,0.3,0.3,0.3,0.6C320.8,3.6,320.7,3.8,320.5,3.9L320.5,3.9z
				 M321.3,5.8c0-0.1,0-0.2,0-0.3l0-0.5c0-0.2-0.1-0.4-0.1-0.5c-0.1-0.1-0.2-0.2-0.4-0.2c0.2-0.1,0.3-0.2,0.4-0.4
				c0.1-0.1,0.1-0.3,0.1-0.6c0-0.4-0.2-0.8-0.5-0.9c-0.2-0.1-0.4-0.1-0.7-0.1h-1.8v3.9h0.5V4.5h1.2c0.2,0,0.4,0,0.5,0.1
				c0.2,0.1,0.3,0.3,0.3,0.5l0,0.7c0,0.2,0,0.3,0,0.3c0,0.1,0,0.1,0,0.1h0.7V6.1C321.4,6.1,321.3,6,321.3,5.8L321.3,5.8z M120.6,18
				C120.6,18,120.6,18,120.6,18L120.6,18C120.6,18,120.6,18,120.6,18L120.6,18z"/>
		</g>
	</g>
</g>
</svg>
