<?xml version="1.0" encoding="UTF-8" standalone="no"?>
<svg width="136px" height="26px" viewBox="0 0 136 26" version="1.1" xmlns="http://www.w3.org/2000/svg" xmlns:xlink="http://www.w3.org/1999/xlink">
    <!-- Generator: Sketch 3.6.1 (26313) - http://www.bohemiancoding.com/sketch -->
    <title>Page 1</title>
    <desc>Created with Sketch.</desc>
    <defs>
        <path id="path-1" d="M0,0.379241379 L135.953769,0.379241379 L135.953769,26 L0,26 L0,0.379241379 Z"></path>
        <path id="path-3" d="M0,0.379241379 L135.953769,0.379241379 L135.953769,26 L0,26"></path>
        <path id="path-5" d="M0,0.379241379 L135.953769,0.379241379 L135.953769,26 L0,26"></path>
    </defs>
    <g id="Work" stroke="none" stroke-width="1" fill="none" fill-rule="evenodd">
        <g id="Pheno-Work-thinkThin" transform="translate(-942.000000, -629.000000)">
            <g id="Page-1" transform="translate(942.000000, 629.000000)">
                <path d="M12.7513241,2.03463448 L16.5274561,2.03463448 C16.5718917,2.49949655 16.5404726,2.9778069 16.5458587,3.45432414 C16.5516937,3.93801379 16.5472053,4.4226 16.5472053,4.90628966 L16.5472053,6.41249655 L16.5472053,7.86491034 L16.5472053,9.31732414 L16.5472053,10.8683586 C16.7150733,10.6626 16.8138191,10.5482897 16.9053835,10.4286 C17.8452647,9.20301379 19.1051723,8.51132414 20.6065584,8.23966897 C21.9948356,7.98818621 23.3597729,8.10787586 24.6739908,8.61711724 C26.4294231,9.2976 27.4150865,10.6276345 27.7651855,12.4431517 C27.856301,12.9142897 27.8935551,13.4020138 27.8949017,13.8825655 C27.9047762,17.7193586 27.9002878,21.5566 27.9007366,25.3933931 L27.9007366,25.8367379 L24.1210139,25.8367379 L24.1210139,25.2378414 C24.1210139,21.8672552 24.1183208,18.496669 24.1241558,15.1256345 C24.1250535,14.5307724 24.0514429,13.9475655 23.9051195,13.374669 C23.5976607,12.1692552 22.8642482,11.3919448 21.606136,11.1870828 C20.4714561,11.0023931 19.3901888,11.1404621 18.4170931,11.8034621 C17.4817003,12.4413586 16.9206442,13.3388069 16.6890403,14.4285655 C16.5858059,14.9136 16.5552845,15.4214966 16.5534891,15.9190828 C16.5413703,19.0211517 16.5472053,22.1227724 16.5472053,25.2248414 L16.5472053,25.8344966 L12.7513241,25.8344966 L12.7513241,2.03463448 Z" id="Fill-1" fill="#000000"></path>
                <path d="M65.3375868,17.4763483 C65.0000554,17.8004517 64.691699,18.0972103 64.381996,18.3930724 C64.0323459,18.7270379 63.687633,19.066831 63.3290059,19.3904862 C63.0982997,19.5989345 63.0107749,19.836969 63.0125703,20.1494172 C63.0242403,21.887831 63.0179564,23.6266931 63.0179564,25.3651069 L63.0179564,25.7873828 C62.613996,25.8824172 60.157468,25.9075207 59.2799762,25.8281759 L59.2799762,2.08165862 C59.6372568,1.98752069 62.0296,1.95838276 62.9964119,2.04534828 C63.0035934,2.22555517 63.0170587,2.41517586 63.0170587,2.60524483 C63.0184053,6.69172759 63.0179564,10.7786586 63.0188541,14.8651414 C63.0188541,15.052969 63.0287287,15.2403483 63.0368079,15.5317276 C63.2405835,15.3533138 63.3631182,15.2587276 63.4712898,15.1497966 C64.8622601,13.7507276 66.2527815,12.3521069 67.6392634,10.9485552 C68.3443987,10.2349 69.0441479,9.51496897 69.7385109,8.79055517 C69.8700224,8.65383103 69.9948013,8.56596897 70.1967815,8.56686552 C71.6496924,8.57403793 73.1021545,8.5709 74.645732,8.5709 C72.4001611,10.723969 70.2124911,12.8219 68.0131512,14.9310379 C70.4369135,18.575969 72.8355406,22.1827966 75.261996,25.8317621 L70.6083723,25.8317621 C68.8650587,23.0685897 67.1096264,20.2856931 65.3375868,17.4763483" id="Fill-3" fill="#000000"></path>
                <path d="M43.8434825,25.8361552 L40.0893439,25.8361552 L40.0893439,8.6367069 C40.4865716,8.55467241 42.8672449,8.53584483 43.6253439,8.61563793 L43.6253439,11.0972931 C43.6581096,11.1062586 43.6904264,11.1156724 43.7231921,11.1250862 C43.7972515,11.0376724 43.8798389,10.9565345 43.9440238,10.8628448 C44.8282482,9.56777586 46.0248686,8.71963793 47.5442086,8.31394828 C48.4266376,8.07860345 49.3211855,8.08218966 50.2125914,8.17498276 C50.9410667,8.25074138 51.6502416,8.43677586 52.3212647,8.75818966 C53.7405122,9.43777586 54.6305716,10.5508448 55.0035617,12.0579483 C55.1480898,12.6420517 55.222598,13.2579828 55.2257399,13.8600172 C55.2450403,17.6591552 55.2356145,21.4587414 55.2356145,25.2583276 L55.2356145,25.7868448 C54.8325518,25.8827759 52.3221624,25.9069828 51.490004,25.8222586 C51.4828224,25.6407069 51.4684594,25.4501897 51.4684594,25.2601207 C51.4671129,21.9621552 51.4751921,18.6646379 51.460829,15.3671207 C51.4576871,14.6552586 51.3944,13.9420517 51.1924198,13.248569 C50.7987828,11.8970172 49.8153637,11.1806724 48.3736739,11.1206034 C47.3139512,11.0762241 46.3462416,11.2981207 45.5064528,11.9705345 C44.6110073,12.6882241 44.1150337,13.6394655 43.9422284,14.7552241 C43.8659248,15.2469828 43.8488686,15.7517414 43.8475221,16.2511207 C43.8394429,19.2438103 43.8434825,22.2369483 43.8434825,25.2296379 L43.8434825,25.8361552 Z" id="Fill-5" fill="#000000"></path>
                <g id="Group-9">
                    <mask id="mask-2" fill="white">
                        <use xlink:href="#path-1"></use>
                    </mask>
                    <g id="Clip-8"></g>
                    <path d="M10.0619353,11.4374897 L6.66238416,11.4374897 C6.65250957,11.6611793 6.63814653,11.8355586 6.63814653,12.0099379 C6.6368,14.9322483 6.63365809,17.8545586 6.64128845,20.776869 C6.64218614,21.1682138 6.65744686,21.5685241 6.74138086,21.9477655 C6.88725545,22.6049379 7.28044356,22.9465241 7.94114323,22.9770069 C8.63595512,23.0092828 9.33435776,22.9761103 10.0520607,22.9711793 L10.0520607,25.8015931 C8.92366469,25.9732828 7.81950627,26.0333517 6.70861518,25.9826966 C6.0968396,25.9549034 5.49897822,25.8509034 4.92266139,25.6446966 C4.00118284,25.3147655 3.38806073,24.689869 3.10573729,23.7435586 C2.86291221,22.9281448 2.80546007,22.0925586 2.80456238,21.2506966 C2.80097162,18.1849379 2.80321584,15.1191793 2.80321584,12.0534207 L2.80321584,11.4271793 L0.000179537954,11.4271793 L0.000179537954,8.58376552 C0.451717492,8.55642069 0.913130033,8.5748 1.37319604,8.57166207 C1.82114323,8.56807586 2.26909043,8.57076552 2.6968396,8.57076552 C2.72960528,8.53804138 2.74307063,8.52593793 2.75518944,8.51248966 C2.76685941,8.49948966 2.78705743,8.4855931 2.78705743,8.47214483 C2.78840396,6.8068 2.78840396,5.14145517 2.78840396,3.48462759 C3.21749967,3.3878 5.58246337,3.3600069 6.62692541,3.43621379 C6.63051617,3.99655862 6.63500462,4.56362759 6.6368,5.13069655 C6.63814653,5.68655862 6.63724884,6.24242069 6.63724884,6.79828276 L6.63724884,8.56493793 L10.0619353,8.56493793 L10.0619353,11.4374897 Z" id="Fill-7" fill="#000000" mask="url(#mask-2)"></path>
                </g>
                <path d="M96.601204,25.8418034 L94.5167683,25.8418034 L94.5167683,2.3257 C94.8489135,2.31852759 95.1810587,2.30866552 95.5136528,2.30507931 C95.8534284,2.3014931 96.193204,2.30418276 96.595369,2.30418276 C96.6074878,2.9497 96.5994086,3.5719069 96.6007551,4.19321724 C96.6021017,4.82080345 96.601204,5.44838966 96.601204,6.07597586 L96.601204,8.01252759 L96.601204,9.89528621 L96.601204,11.7471138 C96.6290323,11.7502517 96.6568607,11.7538379 96.6846891,11.7569759 C96.7928607,11.5543552 96.8929531,11.3472517 97.0096528,11.1500103 C97.6865109,10.0051138 98.6896792,9.24932069 99.919963,8.7979069 C101.674049,8.15418276 103.447435,8.25907931 105.18626,8.83376897 C106.885138,9.39501034 107.825468,10.6676655 108.233468,12.3670793 C108.396848,13.0480103 108.478537,13.7388034 108.478088,14.4399069 C108.475844,18.1337 108.477191,21.8274931 108.476293,25.5212862 C108.476293,25.6104931 108.468663,25.6997 108.463277,25.8063897 C108.132029,25.925631 107.790458,25.8458379 107.456966,25.860631 C107.136042,25.8749759 106.81422,25.863769 106.431805,25.863769 C106.428214,25.6508379 106.42193,25.4612172 106.42193,25.2711483 C106.421032,21.9184931 106.423725,18.5653897 106.419686,15.2122862 C106.418788,14.3677345 106.31331,13.5375276 106.043554,12.7310793 C105.624782,11.4812862 104.802947,10.6362862 103.514313,10.3296655 C101.877376,9.93966552 100.30597,10.0952172 98.9010851,11.1114586 C97.7919894,11.9138724 97.1443063,13.0238034 96.8215868,14.3363552 C96.6671842,14.9643897 96.5958178,15.6000448 96.5976132,16.2491483 C96.6056924,19.243631 96.601204,22.2381138 96.601204,25.2325966 L96.601204,25.8418034 Z" id="Fill-10" fill="#000000"></path>
                <path d="M121.188478,25.8391138 L119.207277,25.8391138 C119.201442,25.8337345 119.187079,25.8229759 119.17496,25.8095276 C119.164187,25.7969759 119.147131,25.7821828 119.147131,25.7682862 C119.141296,20.2831828 119.137257,14.7985276 119.132768,9.31387241 L119.132768,8.9149069 L121.184438,8.9149069 L121.184438,11.7314241 C121.214062,11.7377 121.243686,11.7435276 121.27331,11.7498034 C121.327171,11.6641828 121.387765,11.5825966 121.433996,11.4929414 C122.267052,9.89214828 123.614036,8.97632069 125.338947,8.56032069 C126.716003,8.22814828 128.084082,8.35456207 129.426577,8.71228621 C131.1856,9.18073448 132.285719,10.3525276 132.775857,12.0895966 C132.999831,12.8825966 133.114286,13.7002517 133.116082,14.5255276 C133.123263,18.1462517 133.119224,21.7669759 133.119224,25.3877 L133.119224,25.8355276 L131.008755,25.8355276 L131.008755,25.2505276 C131.008755,21.9167 131.007857,18.5824241 131.009653,15.2485966 C131.010102,14.5488379 130.958036,13.8575966 130.787923,13.1744241 C130.358379,11.4476655 129.30494,10.4354586 127.479937,10.1929414 C126.459263,10.0571138 125.441732,10.1458724 124.474022,10.5618724 C123.130181,11.1401483 122.24461,12.1469759 121.702405,13.4805966 C121.333455,14.3888034 121.197904,15.3440793 121.193415,16.3128034 C121.179501,19.2884586 121.188478,22.2641138 121.188478,25.2393207 L121.188478,25.8391138 Z" id="Fill-12" fill="#000000"></path>
                <path d="M93.0082007,2.33735517 L93.0082007,4.1309069 C92.8353954,4.28511379 92.6284779,4.22011379 92.4404119,4.22011379 C90.0714086,4.22504483 87.7028541,4.22325172 85.3338508,4.22325172 L84.777732,4.22325172 C84.7368871,4.27704483 84.725666,4.29094138 84.7153426,4.30573448 C84.7050191,4.32007931 84.6929003,4.33397586 84.6866165,4.35011379 C84.6803327,4.36625172 84.679435,4.38507931 84.6780884,4.40301034 C84.6749465,4.45635517 84.6709069,4.51014828 84.6709069,4.56394138 C84.6664185,11.6251828 84.66193,18.6864241 84.6569927,25.7476655 C84.6569927,25.7642517 84.6471182,25.7803897 84.6219828,25.8601828 C84.2727815,25.8610793 83.9015868,25.8628724 83.5308409,25.863769 C83.1753558,25.8642172 82.8198706,25.863769 82.4163591,25.863769 L82.4163591,4.25732069 C81.6968607,4.18918276 81.0204515,4.23311379 80.3462865,4.22504483 C79.6465373,4.21697586 78.9467881,4.22325172 78.2470389,4.22325172 L76.201204,4.22325172 L74.1356198,4.22325172 L74.1356198,2.38173448 C74.5337452,2.28087241 91.7590653,2.2364931 93.0082007,2.33735517" id="Fill-14" fill="#000000"></path>
                <path d="M29.4154983,8.59600345 L35.909835,8.59600345 L35.909835,25.7959 C35.5049769,25.8801759 32.7679208,25.8963138 32.1260726,25.8129345 L32.1260726,11.2825207 C31.2292805,11.1937621 30.6152607,10.6907966 30.1004356,10.0470724 C29.7660462,9.62883103 29.4877624,9.17652069 29.4154983,8.59600345" id="Fill-16" fill="#000000"></path>
                <path d="M114.795086,8.97614138 L114.795086,25.8344517 C114.456657,25.8963138 114.119126,25.8546241 113.786083,25.8622448 C113.446308,25.8698655 113.106532,25.8640379 112.772143,25.8640379 C112.677436,25.4587966 112.653648,9.64676207 112.741172,8.94565862 C113.330506,8.85600345 114.431073,8.87214138 114.795086,8.97614138" id="Fill-18" fill="#000000"></path>
                <g id="Group-22">
                    <mask id="mask-4" fill="white">
                        <use xlink:href="#path-3"></use>
                    </mask>
                    <g id="Clip-21"></g>
                    <path d="M36.0973175,0.379196552 C36.1386112,0.43792069 36.1929215,0.488127586 36.214466,0.549989655 C36.6507432,1.80202414 36.8531723,3.07871379 36.5493043,4.39261034 C36.1731723,6.02164483 35.088763,6.7855069 33.5972515,7.02802414 C33.1228224,7.10512759 32.6344792,7.09392069 32.1528686,7.12933448 C31.9073505,7.14771379 31.7435221,7.0343 31.6214363,6.83616207 C31.1003274,5.99161034 30.794664,5.08833448 30.9225848,4.08374828 C31.0078653,3.41492069 31.3579644,2.87161034 31.8548356,2.43767931 C32.1353637,2.19292069 32.4517993,1.96654138 32.7893307,1.81323103 C33.876433,1.31743793 34.9805914,0.859748276 36.0973175,0.379196552" id="Fill-20" fill="#000000" mask="url(#mask-4)"></path>
                </g>
                <path d="M112.724834,2.3382069 C112.825376,2.32565517 112.909758,2.30637931 112.994141,2.30593103 C113.580333,2.30324138 114.166075,2.30458621 114.778749,2.30458621 L114.778749,5.61151724 L112.724834,5.61151724 L112.724834,2.3382069 Z" id="Fill-23" fill="#000000"></path>
                <g id="Group-27">
                    <mask id="mask-6" fill="white">
                        <use xlink:href="#path-5"></use>
                    </mask>
                    <g id="Clip-26"></g>
                    <path d="M135.704121,8.229 C135.699184,7.49965517 135.096834,6.90837931 134.364319,6.91286207 C133.630907,6.9177931 133.032148,7.51982759 133.040227,8.24424138 C133.048306,8.96372414 133.660082,9.60475862 134.352201,9.61910345 C135.057785,9.63389655 135.709059,8.96372414 135.704121,8.229 M132.7983,8.20434483 C132.753864,7.42524138 133.397956,6.66003448 134.381824,6.66093103 C135.232834,6.66137931 135.968042,7.29434483 135.953679,8.27965517 C135.942458,9.04351724 135.341904,9.83337931 134.36028,9.828 C133.442841,9.82306897 132.735461,9.08386207 132.7983,8.20434483" id="Fill-25" fill="#000000" mask="url(#mask-6)"></path>
                </g>
                <path d="M134.039086,7.5629069 L134.039086,8.11428621 C134.206057,8.12325172 134.34475,8.14342414 134.482096,8.13535517 C134.7137,8.12101034 134.865859,7.9919069 134.841621,7.83456207 C134.812895,7.65032069 134.688116,7.5647 134.504539,7.56335517 C134.364948,7.56201034 134.224908,7.5629069 134.039086,7.5629069 M133.815113,7.27959655 C134.132446,7.30380345 134.413423,7.3177 134.692156,7.34997586 C134.877529,7.37104483 135.047641,7.44097586 135.07143,7.66063103 C135.094321,7.87311379 135.125291,8.09501034 134.911192,8.24473448 C134.838928,8.29538966 134.763522,8.34111379 134.681832,8.39401034 C134.81873,8.62397586 134.952486,8.84945862 135.140552,9.16638966 C134.964605,9.11887241 134.8497,9.1229069 134.807509,9.06956207 C134.6751,8.90280345 134.584433,8.70197586 134.448433,8.53925172 C134.381106,8.45856207 134.25139,8.40342414 134.145912,8.39625172 C134.105964,8.39356207 134.035945,8.55404483 134.012605,8.64818276 C133.972209,8.81314828 134.070954,9.00456207 133.923284,9.15607931 C133.760354,8.92656207 133.728935,8.41776897 133.815113,7.27959655" id="Fill-28" fill="#000000"></path>
            </g>
        </g>
    </g>
</svg>