<?xml version="1.0" encoding="UTF-8" standalone="no"?>
<svg width="55px" height="44px" viewBox="0 0 55 44" version="1.1" xmlns="http://www.w3.org/2000/svg" xmlns:xlink="http://www.w3.org/1999/xlink">
    <!-- Generator: Sketch 3.6.1 (26313) - http://www.bohemiancoding.com/sketch -->
    <title>Page 1 Copy</title>
    <desc>Created with Sketch.</desc>
    <defs>
        <path id="path-1" d="M0,0.635900814 L54.3169289,0.635900814 L54.3169289,43.3100014 L0,43.3100014 L0,0.635900814 Z"></path>
    </defs>
    <g id="Work" stroke="none" stroke-width="1" fill="none" fill-rule="evenodd">
        <g id="Pheno-Work-Wilson-Anthem" transform="translate(-941.000000, -631.000000)">
            <g id="Page-1-Copy" transform="translate(941.000000, 631.000000)">
                <path d="M51.8414529,40.8721295 C52.0841264,40.8721295 52.2903645,40.8556305 52.2903645,40.5648347 C52.2903645,40.3290359 52.0841264,40.2898506 51.8875128,40.2898506 L51.4984102,40.2898506 L51.4984102,40.8721295 L51.8414529,40.8721295 Z M51.4984102,41.9177567 L51.2206762,41.9177567 L51.2206762,40.048552 L51.9349475,40.048552 C52.3735472,40.048552 52.5887223,40.2149174 52.5887223,40.5792714 C52.5887223,40.9147521 52.3900463,41.0653059 52.108875,41.0928043 L52.6389069,41.9177567 L52.3274874,41.9177567 L51.8160169,41.1093033 L51.4984102,41.1093033 L51.4984102,41.9177567 Z M51.8448902,42.5983424 C50.9463796,42.5983424 50.1894857,41.9177567 50.1894857,40.9793733 C50.1894857,40.048552 50.9463796,39.3679663 51.8448902,39.3679663 C52.7289642,39.3679663 53.4837957,40.048552 53.4837957,40.9793733 C53.4837957,41.9177567 52.7289642,42.5983424 51.8448902,42.5983424 L51.8448902,42.5983424 Z M50.5194667,40.9793733 C50.5194667,41.7575784 51.1051829,42.33642 51.8448902,42.33642 C52.5797853,42.33642 53.1586269,41.7575784 53.1586269,40.9793733 C53.1586269,40.2149174 52.5797853,39.633326 51.8448902,39.633326 C51.1051829,39.633326 50.5194667,40.2149174 50.5194667,40.9793733 L50.5194667,40.9793733 Z" id="Fill-1" fill="#2C2C2C"></path>
                <g id="Group-5">
                    <mask id="mask-2" fill="white">
                        <use xlink:href="#path-1"></use>
                    </mask>
                    <g id="Clip-4"></g>
                    <path d="M15.9294185,29.9785642 C15.9294185,33.8922759 19.8630666,33.8922759 19.8630666,33.8922759 C23.78984,33.8922759 23.78984,29.9785642 23.78984,29.9785642 L23.78984,7.83821655 L19.0965483,7.83821655 L19.0965483,0.636382036 L35.005068,0.636382036 L35.005068,30.5106585 C34.8985116,33.7870945 37.6256668,33.8922759 37.6256668,33.8922759 C40.6889901,33.8922759 42.1044709,30.5106585 42.1044709,30.5106585 C44.3978386,25.7554954 44.1709767,21.2457555 44.1709767,21.2457555 C44.1709767,13.7221896 42.1044709,7.83821655 42.1044709,7.83821655 L38.1708229,7.83821655 L38.1708229,0.636382036 L51.2676298,0.636382036 C54.097904,7.60173019 54.3158289,19.4899818 54.3158289,19.4899818 C54.4244477,35.3098192 46.792263,40.4300238 46.792263,40.4300238 C43.0806646,43.8095788 37.6256668,43.2795469 37.6256668,43.2795469 C31.8503125,43.2795469 28.8021134,38.3538935 28.8021134,38.3538935 C25.1895093,43.3799161 19.0965483,43.2795469 19.0965483,43.2795469 C4.70937831,43.2795469 4.70937831,29.6492707 4.70937831,29.6492707 L4.70937831,7.83821655 L0.000274984136,7.83821655 L0.000274984136,0.636382036 L15.9294185,0.636382036 L15.9294185,29.9785642 Z" id="Fill-3" fill="#2C2C2C" mask="url(#mask-2)"></path>
                </g>
            </g>
        </g>
    </g>
</svg>