<?xml version="1.0" encoding="UTF-8" standalone="no"?>
<svg width="18px" height="22px" viewBox="0 0 18 22" version="1.1" xmlns="http://www.w3.org/2000/svg" xmlns:xlink="http://www.w3.org/1999/xlink">
    <!-- Generator: Sketch 3.6.1 (26313) - http://www.bohemiancoding.com/sketch -->
    <title>Page 1</title>
    <desc>Created with Sketch.</desc>
    <defs></defs>
    <g id="Work" stroke="none" stroke-width="1" fill="none" fill-rule="evenodd">
        <g id="Pheno-Work-Wilson-Anthem" transform="translate(-946.000000, -900.000000)" fill="#000000">
            <path d="M960.474473,914.118461 C959.564944,914.118461 958.738442,914.465667 958.113219,915.03145 L952.903554,911.594612 C952.999476,911.273823 953.052626,910.93448 953.052626,910.582556 C953.052626,910.230947 952.99979,909.892232 952.903868,909.572073 L958.111961,906.139323 C958.737499,906.70542 959.564315,907.052941 960.474473,907.052941 C962.421218,907.052941 964,905.473844 964,903.52647 C964,901.579096 962.421218,900 960.474473,900 C958.527099,900 956.948003,901.579096 956.948003,903.52647 C956.948003,903.857952 956.997065,904.177482 957.082608,904.481916 L951.847783,907.932593 C951.227277,907.388825 950.416501,907.0564 949.52647,907.0564 C947.579411,907.0564 946,908.635496 946,910.58287 C946,912.530244 947.579411,914.109341 949.52647,914.109341 C950.415872,914.109341 951.226019,913.777545 951.84621,913.234406 L957.082608,916.688542 C956.997065,916.993291 956.947688,917.31345 956.947688,917.64556 C956.947688,919.592305 958.526785,921.171402 960.474159,921.171402 C962.420904,921.171402 963.999686,919.592305 963.999686,917.64556 C964,915.697872 962.421218,914.118461 960.474473,914.118461" id="Page-1"></path>
        </g>
    </g>
</svg>