<?xml version="1.0" encoding="utf-8"?>
<!-- Generator: Adobe Illustrator 19.1.0, SVG Export Plug-In . SVG Version: 6.00 Build 0)  -->
<svg version="1.1" id="Layer_1" xmlns="http://www.w3.org/2000/svg" xmlns:xlink="http://www.w3.org/1999/xlink" x="0px" y="0px"
	 viewBox="0 0 477.6 68.7" style="enable-background:new 0 0 477.6 68.7;" xml:space="preserve">
<style type="text/css">
	.st0{fill:#CC2127;}
	.st1{display:none;}
	.st2{display:inline;}
</style>
<g>
	<g>
		<path class="st0" d="M467.7,20.5c5.4,0,9.9,4.3,9.9,9.8c0,5.7-4.5,9.9-9.9,9.9c-5.4,0-10-4.3-10-9.9
			C457.7,24.7,462.2,20.5,467.7,20.5z M467.7,38.8c4.6,0,8.1-3.6,8.1-8.5c0-4.7-3.5-8.4-8.1-8.4c-4.6,0-8.2,3.6-8.2,8.4
			C459.5,35.1,463,38.8,467.7,38.8z M463.8,24.5h4.5c2.7,0,4,1.1,4,3.3c0,2.1-1.3,3-3,3.1l3.3,5.1h-1.9l-3.1-5h-1.9v5h-1.8V24.5z
			 M465.6,29.7h1.9c1.6,0,3-0.1,3-1.9c0-1.5-1.3-1.8-2.5-1.8h-2.4V29.7z"/>
	</g>
	<g>
		<path class="st0" d="M-0.3,68.7V17.6h9.7v4.5c1.6-2.8,5.8-5.3,11.3-5.3c10.8,0,17,8.2,17,19.2c0,11.2-7,19.4-17.4,19.4
			c-5.1,0-8.8-2-10.6-4.5v17.8H-0.3z M18.7,25.7c-5.1,0-9.2,3.8-9.2,10.3s4.1,10.4,9.2,10.4s9.1-3.8,9.1-10.4
			C27.8,29.5,23.8,25.7,18.7,25.7z"/>
		<path class="st0" d="M55.5,54.5h-10V0.3h10v20.4c2.4-2.8,6.4-4,10-4c9.4,0,13.7,6.5,13.7,14.6v23.2h-10V33c0-4.1-2-7.3-6.8-7.3
			c-4.2,0-6.7,3.1-6.9,7.2V54.5z"/>
		<path class="st0" d="M122.3,43.9c-1.9,6.4-7.7,11.7-16.8,11.7c-10.1,0-19-7.3-19-19.7c0-11.8,8.7-19.4,18.1-19.4
			c11.4,0,18.2,7.3,18.2,19.1c0,1.4-0.1,2.9-0.1,3.1H96.3c0.2,4.9,4.3,8.4,9.3,8.4c4.6,0,7.2-2.3,8.4-5.6L122.3,43.9z M113,31.8
			c-0.1-3.7-2.5-7.3-8.2-7.3c-5.2,0-8,3.9-8.2,7.3H113z"/>
		<path class="st0" d="M140.6,54.5h-10V17.6h9.7v4.6c2.2-3.8,6.7-5.5,10.6-5.5c9.1,0,13.3,6.5,13.3,14.6v23.2h-10V33
			c0-4.1-2-7.3-6.8-7.3c-4.3,0-6.9,3.4-6.9,7.6V54.5z"/>
		<path class="st0" d="M210.2,36c0,11.3-8.3,19.5-19.3,19.5c-11,0-19.3-8.2-19.3-19.5c0-11.4,8.3-19.5,19.3-19.5
			C201.9,16.5,210.2,24.7,210.2,36z M200.3,36c0-7-4.5-10.5-9.4-10.5c-4.9,0-9.4,3.5-9.4,10.5c0,6.9,4.5,10.5,9.4,10.5
			C195.8,46.5,200.3,43,200.3,36z"/>
		<path class="st0" d="M218.1,54.5V17.6h9.5v4.5c2-3.6,6.7-5.5,10.8-5.5c5,0,9.1,2.2,10.9,6.1c2.9-4.5,6.8-6.1,11.7-6.1
			c6.8,0,13.3,4.1,13.3,14v23.9h-9.7V32.6c0-4-1.9-7-6.5-7c-4.3,0-6.8,3.3-6.8,7.3v21.6h-9.9V32.6c0-4-2-7-6.5-7
			c-4.3,0-6.9,3.2-6.9,7.3v21.6H218.1z"/>
		<path class="st0" d="M317.5,43.9c-1.9,6.4-7.7,11.7-16.8,11.7c-10.1,0-19-7.3-19-19.7c0-11.8,8.7-19.4,18.1-19.4
			c11.4,0,18.2,7.3,18.2,19.1c0,1.4-0.1,2.9-0.1,3.1h-26.4c0.2,4.9,4.3,8.4,9.3,8.4c4.6,0,7.2-2.3,8.4-5.6L317.5,43.9z M308.2,31.8
			c-0.1-3.7-2.5-7.3-8.2-7.3c-5.2,0-8,3.9-8.2,7.3H308.2z"/>
		<path class="st0" d="M335.8,54.5h-10V17.6h9.7v4.6c2.2-3.8,6.7-5.5,10.6-5.5c9.1,0,13.3,6.5,13.3,14.6v23.2h-10V33
			c0-4.1-2-7.3-6.8-7.3c-4.3,0-6.9,3.4-6.9,7.6V54.5z"/>
		<path class="st0" d="M405.5,36c0,11.3-8.3,19.5-19.3,19.5s-19.3-8.2-19.3-19.5c0-11.4,8.3-19.5,19.3-19.5S405.5,24.7,405.5,36z
			 M395.5,36c0-7-4.5-10.5-9.4-10.5c-4.9,0-9.4,3.5-9.4,10.5c0,6.9,4.5,10.5,9.4,10.5C391,46.5,395.5,43,395.5,36z"/>
		<path class="st0" d="M423.3,54.5h-10V17.6h9.7v4.6c2.2-3.8,6.7-5.5,10.6-5.5c9.1,0,13.3,6.5,13.3,14.6v23.2h-10V33
			c0-4.1-2-7.3-6.8-7.3c-4.3,0-6.9,3.4-6.9,7.6V54.5z"/>
	</g>
</g>
<g class="st1">
	<g class="st2">
		<path class="st0" d="M1467.1,293.1c5.4,0,9.9,4.3,9.9,9.8c0,5.7-4.5,9.9-9.9,9.9c-5.4,0-10-4.3-10-9.9
			C1457.1,297.4,1461.7,293.1,1467.1,293.1z M1467.1,311.4c4.6,0,8.1-3.6,8.1-8.5c0-4.7-3.5-8.4-8.1-8.4c-4.6,0-8.2,3.6-8.2,8.4
			C1458.9,307.8,1462.5,311.4,1467.1,311.4z M1463.2,297.2h4.5c2.7,0,4,1.1,4,3.3c0,2.1-1.3,3-3,3.1l3.3,5.1h-1.9l-3.1-5h-1.9v5
			h-1.8V297.2z M1465,302.3h1.9c1.6,0,3-0.1,3-1.9c0-1.5-1.3-1.8-2.5-1.8h-2.4V302.3z"/>
	</g>
	<g class="st2">
		<path class="st0" d="M999.1,341.3v-51.1h9.7v4.5c1.6-2.8,5.8-5.3,11.3-5.3c10.8,0,17,8.2,17,19.2c0,11.2-7,19.4-17.4,19.4
			c-5.1,0-8.8-2-10.6-4.5v17.8H999.1z M1018.1,298.4c-5.1,0-9.2,3.8-9.2,10.3c0,6.5,4.1,10.4,9.2,10.4c5.1,0,9.1-3.8,9.1-10.4
			C1027.3,302.2,1023.2,298.4,1018.1,298.4z"/>
		<path class="st0" d="M1054.9,327.1h-10v-54.2h10v20.4c2.4-2.8,6.4-4,10-4c9.4,0,13.7,6.5,13.7,14.6v23.2h-10v-21.5
			c0-4.1-2-7.3-6.8-7.3c-4.2,0-6.7,3.1-6.9,7.2V327.1z"/>
		<path class="st0" d="M1121.7,316.6c-1.9,6.4-7.7,11.7-16.8,11.7c-10.1,0-19-7.3-19-19.7c0-11.8,8.7-19.4,18.1-19.4
			c11.4,0,18.2,7.3,18.2,19.1c0,1.4-0.1,2.9-0.1,3.1h-26.4c0.2,4.9,4.3,8.4,9.3,8.4c4.6,0,7.2-2.3,8.4-5.6L1121.7,316.6z
			 M1112.4,304.5c-0.1-3.7-2.5-7.3-8.2-7.3c-5.2,0-8,3.9-8.2,7.3H1112.4z"/>
		<path class="st0" d="M1140.1,327.1h-10v-36.8h9.7v4.6c2.2-3.8,6.7-5.5,10.6-5.5c9.1,0,13.3,6.5,13.3,14.6v23.2h-10v-21.5
			c0-4.1-2-7.3-6.8-7.3c-4.3,0-6.9,3.4-6.9,7.6V327.1z"/>
		<path class="st0" d="M1209.7,308.7c0,11.3-8.3,19.5-19.3,19.5c-11,0-19.3-8.2-19.3-19.5c0-11.4,8.3-19.5,19.3-19.5
			C1201.4,289.2,1209.7,297.3,1209.7,308.7z M1199.7,308.7c0-7-4.5-10.5-9.4-10.5c-4.9,0-9.4,3.5-9.4,10.5c0,6.9,4.5,10.5,9.4,10.5
			C1195.2,319.2,1199.7,315.7,1199.7,308.7z"/>
		<path class="st0" d="M1217.6,327.1v-36.8h9.5v4.5c2-3.6,6.7-5.5,10.8-5.5c5,0,9.1,2.2,10.9,6.1c2.9-4.5,6.8-6.1,11.7-6.1
			c6.8,0,13.3,4.1,13.3,14v23.9h-9.7v-21.9c0-4-1.9-7-6.5-7c-4.3,0-6.8,3.3-6.8,7.3v21.6h-9.9v-21.9c0-4-2-7-6.5-7
			c-4.3,0-6.9,3.2-6.9,7.3v21.6H1217.6z"/>
		<path class="st0" d="M1316.9,316.6c-1.9,6.4-7.7,11.7-16.8,11.7c-10.1,0-19-7.3-19-19.7c0-11.8,8.7-19.4,18.1-19.4
			c11.4,0,18.2,7.3,18.2,19.1c0,1.4-0.1,2.9-0.1,3.1h-26.4c0.2,4.9,4.3,8.4,9.3,8.4c4.6,0,7.2-2.3,8.4-5.6L1316.9,316.6z
			 M1307.6,304.5c-0.1-3.7-2.5-7.3-8.2-7.3c-5.2,0-8,3.9-8.2,7.3H1307.6z"/>
		<path class="st0" d="M1335.3,327.1h-10v-36.8h9.7v4.6c2.2-3.8,6.7-5.5,10.6-5.5c9.1,0,13.3,6.5,13.3,14.6v23.2h-10v-21.5
			c0-4.1-2-7.3-6.8-7.3c-4.3,0-6.9,3.4-6.9,7.6V327.1z"/>
		<path class="st0" d="M1404.9,308.7c0,11.3-8.3,19.5-19.3,19.5c-11,0-19.3-8.2-19.3-19.5c0-11.4,8.3-19.5,19.3-19.5
			C1396.6,289.2,1404.9,297.3,1404.9,308.7z M1395,308.7c0-7-4.5-10.5-9.4-10.5c-4.9,0-9.4,3.5-9.4,10.5c0,6.9,4.5,10.5,9.4,10.5
			C1390.5,319.2,1395,315.7,1395,308.7z"/>
		<path class="st0" d="M1422.7,327.1h-10v-36.8h9.7v4.6c2.2-3.8,6.7-5.5,10.6-5.5c9.1,0,13.3,6.5,13.3,14.6v23.2h-10v-21.5
			c0-4.1-2-7.3-6.8-7.3c-4.3,0-6.9,3.4-6.9,7.6V327.1z"/>
	</g>
</g>
<g>
	<rect x="-109.4" y="-212.3" style="fill:none;" width="175.3" height="48.9"/>
	<text transform="matrix(1 0 0 1 -109.373 -207.2604)" style="font-family:'Helvetica-Light'; font-size:7px;">New logo - 03/14/2016</text>
</g>
</svg>
