<?xml version="1.0" encoding="utf-8"?>
<!-- Generator: Adobe Illustrator 19.2.1, SVG Export Plug-In . SVG Version: 6.00 Build 0)  -->
<svg version="1.1" id="Layer_1" xmlns="http://www.w3.org/2000/svg" xmlns:xlink="http://www.w3.org/1999/xlink" x="0px" y="0px"
	 viewBox="0 0 418 66.5" style="enable-background:new 0 0 418 66.5;" xml:space="preserve">
<style type="text/css">
	.st0{display:none;}
	.st1{display:inline;}
	.st2{fill:#CC2127;}
	.st3{fill:#CC2128;}
</style>
<g class="st0">
	<g class="st1">
		<path class="st2" d="M1467.1,290.9c5.4,0,9.9,4.3,9.9,9.8c0,5.7-4.5,9.9-9.9,9.9s-10-4.3-10-9.9
			C1457.1,295.2,1461.7,290.9,1467.1,290.9z M1467.1,309.2c4.6,0,8.1-3.6,8.1-8.5c0-4.7-3.5-8.4-8.1-8.4s-8.2,3.6-8.2,8.4
			C1458.9,305.6,1462.5,309.2,1467.1,309.2z M1463.2,295h4.5c2.7,0,4,1.1,4,3.3c0,2.1-1.3,3-3,3.1l3.3,5.1h-1.9l-3.1-5h-1.9v5h-1.8
			L1463.2,295L1463.2,295z M1465,300.1h1.9c1.6,0,3-0.1,3-1.9c0-1.5-1.3-1.8-2.5-1.8h-2.4V300.1z"/>
	</g>
	<g class="st1">
		<path class="st2" d="M999.1,339.1V288h9.7v4.5c1.6-2.8,5.8-5.3,11.3-5.3c10.8,0,17,8.2,17,19.2c0,11.2-7,19.4-17.4,19.4
			c-5.1,0-8.8-2-10.6-4.5v17.8H999.1z M1018.1,296.2c-5.1,0-9.2,3.8-9.2,10.3s4.1,10.4,9.2,10.4c5.1,0,9.1-3.8,9.1-10.4
			C1027.3,300,1023.2,296.2,1018.1,296.2z"/>
		<path class="st2" d="M1054.9,324.9h-10v-54.2h10v20.4c2.4-2.8,6.4-4,10-4c9.4,0,13.7,6.5,13.7,14.6v23.2h-10v-21.5
			c0-4.1-2-7.3-6.8-7.3c-4.2,0-6.7,3.1-6.9,7.2L1054.9,324.9L1054.9,324.9z"/>
		<path class="st2" d="M1121.7,314.4c-1.9,6.4-7.7,11.7-16.8,11.7c-10.1,0-19-7.3-19-19.7c0-11.8,8.7-19.4,18.1-19.4
			c11.4,0,18.2,7.3,18.2,19.1c0,1.4-0.1,2.9-0.1,3.1h-26.4c0.2,4.9,4.3,8.4,9.3,8.4c4.6,0,7.2-2.3,8.4-5.6L1121.7,314.4z
			 M1112.4,302.3c-0.1-3.7-2.5-7.3-8.2-7.3c-5.2,0-8,3.9-8.2,7.3H1112.4z"/>
		<path class="st2" d="M1140.1,324.9h-10v-36.8h9.7v4.6c2.2-3.8,6.7-5.5,10.6-5.5c9.1,0,13.3,6.5,13.3,14.6V325h-10v-21.5
			c0-4.1-2-7.3-6.8-7.3c-4.3,0-6.9,3.4-6.9,7.6v21.1H1140.1z"/>
		<path class="st2" d="M1209.7,306.5c0,11.3-8.3,19.5-19.3,19.5s-19.3-8.2-19.3-19.5c0-11.4,8.3-19.5,19.3-19.5
			C1201.4,287,1209.7,295.1,1209.7,306.5z M1199.7,306.5c0-7-4.5-10.5-9.4-10.5s-9.4,3.5-9.4,10.5c0,6.9,4.5,10.5,9.4,10.5
			S1199.7,313.5,1199.7,306.5z"/>
		<path class="st2" d="M1217.6,324.9v-36.8h9.5v4.5c2-3.6,6.7-5.5,10.8-5.5c5,0,9.1,2.2,10.9,6.1c2.9-4.5,6.8-6.1,11.7-6.1
			c6.8,0,13.3,4.1,13.3,14V325h-9.7v-21.9c0-4-1.9-7-6.5-7c-4.3,0-6.8,3.3-6.8,7.3V325h-9.9v-21.9c0-4-2-7-6.5-7
			c-4.3,0-6.9,3.2-6.9,7.3V325h-9.9V324.9z"/>
		<path class="st2" d="M1316.9,314.4c-1.9,6.4-7.7,11.7-16.8,11.7c-10.1,0-19-7.3-19-19.7c0-11.8,8.7-19.4,18.1-19.4
			c11.4,0,18.2,7.3,18.2,19.1c0,1.4-0.1,2.9-0.1,3.1h-26.4c0.2,4.9,4.3,8.4,9.3,8.4c4.6,0,7.2-2.3,8.4-5.6L1316.9,314.4z
			 M1307.6,302.3c-0.1-3.7-2.5-7.3-8.2-7.3c-5.2,0-8,3.9-8.2,7.3H1307.6z"/>
		<path class="st2" d="M1335.3,324.9h-10v-36.8h9.7v4.6c2.2-3.8,6.7-5.5,10.6-5.5c9.1,0,13.3,6.5,13.3,14.6V325h-10v-21.5
			c0-4.1-2-7.3-6.8-7.3c-4.3,0-6.9,3.4-6.9,7.6v21.1H1335.3z"/>
		<path class="st2" d="M1404.9,306.5c0,11.3-8.3,19.5-19.3,19.5s-19.3-8.2-19.3-19.5c0-11.4,8.3-19.5,19.3-19.5
			S1404.9,295.1,1404.9,306.5z M1395,306.5c0-7-4.5-10.5-9.4-10.5s-9.4,3.5-9.4,10.5c0,6.9,4.5,10.5,9.4,10.5S1395,313.5,1395,306.5
			z"/>
		<path class="st2" d="M1422.7,324.9h-10v-36.8h9.7v4.6c2.2-3.8,6.7-5.5,10.6-5.5c9.1,0,13.3,6.5,13.3,14.6V325h-10v-21.5
			c0-4.1-2-7.3-6.8-7.3c-4.3,0-6.9,3.4-6.9,7.6v21.1H1422.7z"/>
	</g>
</g>
<g>
	<g>
		<path class="st3" d="M35.3,34c0,10.6-6.8,17.5-16.3,17.5c-4.3,0-7.7-1.7-9.5-4.2v19.2H0V16.3h8.5L9,20.5c1.7-2.3,5.3-5.1,10-5.1
			C28.5,15.4,35.3,23.4,35.3,34z M9.5,33.2v0.2c0,5.4,3.2,10,8,10s8.2-3.5,8.2-9.4c0-6.1-3.5-10.4-8.2-10.4
			C12.7,23.6,9.5,27.8,9.5,33.2z"/>
		<path class="st3" d="M50.7,18.9c1.5-1.9,4.2-3.6,8.5-3.6c7.8,0,13.2,5.1,13.2,13.8v21.6h-9.5V31c0-4.3-2.3-7.3-6.1-7.3
			c-3.8,0-6.2,3.3-6.2,7.4v19.8l-9.5-0.1V0.1L50.7,0V18.9z"/>
		<path class="st3" d="M148.2,29.5v21.4h-9.5V31.4c0-4.3-2.3-7.5-6.1-7.5c-3.8,0-6.2,3.6-6.2,7.7v19.4h-9.5V16.3h8.6l0.5,4.3
			c1.5-2.3,4.3-5.2,8.9-5.2C142.7,15.4,148.2,20.8,148.2,29.5z"/>
		<path class="st3" d="M401.3,29.5v21.4h-9.5V31.4c0-4.3-2.3-7.5-5.9-7.5c-3.8,0-6.3,3.5-6.3,7.5v19.4h-9.5V16.3h8.6l0.5,4.3
			c1.5-2.3,4.3-5.2,8.9-5.2C395.9,15.4,401.3,20.8,401.3,29.5z"/>
		<path class="st3" d="M323.5,29.5v21.4H314V31.4c0-4.3-2.3-7.5-5.9-7.5c-3.8,0-6.3,3.5-6.3,7.5v19.4h-9.5V16.3h8.6l0.5,4.3
			c1.5-2.3,4.3-5.2,8.9-5.2C318.1,15.4,323.5,20.8,323.5,29.5z"/>
		<path class="st3" d="M171.5,15.3c11,0,17.9,7.9,17.9,18.7c0,10.6-7.7,17.9-17.9,17.9c-10.4,0-18.2-7.3-18.2-17.9
			S161.1,15.3,171.5,15.3z M171.4,23.7c-4.9,0-8.6,4.3-8.6,10.3s3.8,9.5,8.8,9.5c4.9,0,8.6-3.6,8.6-9.5
			C180.2,28,176.8,23.7,171.4,23.7z"/>
		<path class="st3" d="M364.5,34c0,10.6-7.8,17.9-18.2,17.9c-10.4,0-17.9-7.3-17.9-17.9s7-18.7,17.9-18.7
			C356.7,15.3,364.5,23.4,364.5,34z M337.7,34c0,5.9,3.8,9.5,8.6,9.5c4.9,0,8.8-3.6,8.8-9.5c0-5.9-3.7-10.3-8.6-10.3
			C341.2,23.7,337.7,28,337.7,34z"/>
		<path class="st3" d="M247,29.5v21.4h-9.5V30.6c0-4.3-2-7-5.7-7c-3.5,0-5.4,2.5-5.9,5.9v21.4h-9.5V30.6c0-4.3-2-7-5.4-7
			c-3.8,0-6.1,3-6.1,7v20.3h-9.5V16.4h8.5l0.5,3.5c1.5-2.3,4.2-4.3,8.9-4.3c4.7,0,8.4,2.1,10.6,5.7c2-3.1,5.3-5.7,10.4-5.7
			C241.8,15.4,247,20.9,247,29.5z"/>
	</g>
	<path class="st3" d="M94.7,44c-4.3,0-7.9-3.8-8-8h24.6l0.1-3.6c0-10.5-6.8-17.2-16.6-17.2c-10.1,0-17.2,7.8-17.4,17.9
		c-0.2,11.2,8.3,18.7,17.1,18.7s14.8-4.8,16.2-11.2h-9.1C100,43.1,97.9,44,94.7,44z M94.7,22.7c4.7,0,7.4,3,7.5,7H86.9
		C87.5,25.3,90.9,22.7,94.7,22.7z"/>
	<path class="st3" d="M269.3,44c-4.3,0-7.9-3.8-8-8h24.6l0.1-3.6c0-10.5-6.8-17.2-16.6-17.2c-10.1,0-17.2,7.8-17.4,17.9
		c-0.2,11.2,8.3,18.7,17.1,18.7s14.8-4.8,16.2-11.2H276C274.6,43.1,272.5,44,269.3,44z M269.3,22.7c4.7,0,7.4,3,7.5,7h-15.3
		C262.1,25.3,265.5,22.7,269.3,22.7z"/>
</g>
<g>
	<path class="st3" d="M413.3,41.1c2.6,0,4.7,2,4.7,4.7c0,2.7-2.1,4.7-4.7,4.7c-2.6,0-4.8-2-4.8-4.7
		C408.5,43.2,410.7,41.1,413.3,41.1z M413.3,49.9c2.2,0,3.8-1.7,3.8-4.1c0-2.2-1.7-4-3.8-4c-2.2,0-4,1.7-4,4
		C409.4,48.2,411.1,49.9,413.3,49.9z M411.5,43.1h2.1c1.4,0,2,0.5,2,1.6c0,1-0.6,1.4-1.5,1.5l1.6,2.5h-1l-1.5-2.3h-0.9v2.3h-0.9
		L411.5,43.1L411.5,43.1z M412.3,45.6h0.9c0.7,0,1.5,0,1.5-0.9c0-0.7-0.6-0.9-1.2-0.9h-1.1L412.3,45.6L412.3,45.6z"/>
</g>
</svg>
