<?xml version="1.0" standalone="no"?>
<!DOCTYPE svg PUBLIC "-//W3C//DTD SVG 20010904//EN"
 "http://www.w3.org/TR/2001/REC-SVG-20010904/DTD/svg10.dtd">
<svg version="1.0" xmlns="http://www.w3.org/2000/svg"
 width="149.000000pt" height="149.000000pt" viewBox="0 0 149.000000 149.000000"
 preserveAspectRatio="xMidYMid meet">
<metadata>
Created by potrace 1.13, written by Peter Selinger 2001-2015
</metadata>
<g transform="translate(0.000000,149.000000) scale(0.100000,-0.100000)"
fill="#000000" stroke="none">
<path d="M601 1475 c-102 -23 -152 -42 -236 -92 -154 -90 -280 -250 -334 -427
-21 -69 -25 -101 -25 -211 0 -110 4 -142 25 -211 74 -240 263 -429 503 -503
69 -21 101 -25 211 -25 110 0 142 4 211 25 240 74 429 263 503 503 21 69 25
101 25 211 0 110 -4 142 -25 211 -74 240 -266 432 -503 502 -103 30 -263 38
-355 17z m-11 -567 c0 -48 3 -59 12 -50 21 21 77 14 103 -13 23 -22 25 -32 25
-115 l0 -90 -30 0 -30 0 0 66 c0 74 -12 104 -40 104 -28 0 -40 -30 -40 -104
l0 -66 -30 0 -30 0 0 165 0 165 30 0 30 0 0 -62z m-262 -50 c9 -9 15 -9 24 0
22 22 75 14 109 -16 58 -52 48 -171 -17 -201 -31 -14 -69 -14 -95 -1 -18 10
-19 7 -19 -50 l0 -60 -30 0 -30 0 0 170 0 170 23 0 c13 0 28 -5 35 -12z m517
2 c4 -7 12 -7 25 0 32 17 70 11 95 -15 23 -22 25 -32 25 -120 l0 -95 -30 0
-30 0 0 71 c0 78 -11 109 -40 109 -29 0 -40 -31 -40 -109 l0 -71 -30 0 -30 0
0 120 0 120 24 0 c14 0 28 -5 31 -10z m355 -5 c76 -40 81 -160 8 -205 -85 -51
-188 4 -188 100 0 92 96 148 180 105z"/>
</g>
</svg>
