<svg id="Layer_1" data-name="Layer 1" xmlns="http://www.w3.org/2000/svg" viewBox="0 0 375 100"><title>Artboard 2</title><g id="_Group_" data-name="&lt;Group&gt;"><g id="_Group_2" data-name="&lt;Group&gt;"><path id="_Path_" data-name="&lt;Path&gt;" d="M202.83,79.32c-2.79,1.66-6.18,1.85-9.33,1.51a7.15,7.15,0,0,1-4.79-2.41c-1.73-2.17-2-5-2.25-7.69-.09-2.38-.05-4.77-.06-7.15,0-8.43,0-16.86,0-25.29,5,0,10,0,15,0a27.55,27.55,0,0,0,.07-3.06c0-4.31,0-8.61,0-12.92-4.92-.11-9.85,0-14.77-.07l-.08-.1c-.13-3.28.13-6.57.22-9.85.26-1.72.09-3.46.36-5.18,0-1.57.29-3.12.23-4.68-4.67.11-9.35-.1-14,.11a51.69,51.69,0,0,1-2,9.5,19.65,19.65,0,0,1-5.36,8.85c-3.08,2.78-7.15,4.15-11.18,4.8-.08,4.2.09,8.39,0,12.59h8.43c0,2.34,0,4.69-.14,7,0,5-.13,9.93-.12,14.9-.14,1.82-.07,3.64-.09,5.45,0,4.83-.32,9.71.47,14.51a20.76,20.76,0,0,0,4.45,10.22,19.09,19.09,0,0,0,9.63,5.81,44.62,44.62,0,0,0,13.1,1.23c1.56-.2,3.15,0,4.7-.31a56,56,0,0,0,8.53-1.35c-.2-4-.48-8-.71-12C203,82.28,203.13,80.78,202.83,79.32Z"/><path id="_Compound_Path_" data-name="&lt;Compound Path&gt;" d="M145.23,29.3a10.35,10.35,0,0,0-2-2.2,25.06,25.06,0,0,0-10-5.28c-5.66-1.68-11.62-1.94-17.5-1.79a52.75,52.75,0,0,0-14.45,2.38,28.18,28.18,0,0,0-10.25,5.77,37.64,37.64,0,0,0-3.58,4c-4.15,5.67-6,12.67-6.74,19.58a26,26,0,0,1-3.18-.16c-2.38-.08-4.75-.1-7.13-.11a17.26,17.26,0,0,1-3.06-.13A39.82,39.82,0,0,0,67.44,47a41.54,41.54,0,0,0-1.68-12.06A19.29,19.29,0,0,0,58.87,25C54.54,21.93,49.19,20.8,44,20.24c-.68-.06-1.36.09-2,0l.27-.31a20.76,20.76,0,0,1-3.5-.06,5,5,0,0,1-1.4,0c-2.59-.16-5.16.15-7.75.18a23.4,23.4,0,0,1-2.62.21A67.57,67.57,0,0,0,9.17,24c0,2.22.27,4.43.31,6.65.25,3.3.29,6.62.57,9.92.93-.34,1.77-.86,2.69-1.23a48.88,48.88,0,0,1,12.13-3.7c.62-.16,1.39,0,1.88-.45l-.13.22a30,30,0,0,1,6.44-.1c2.81.2,5.82.95,7.82,3.07s2.67,5,3,7.79a25.81,25.81,0,0,1,0,5.13c-3.95,0-7.91-.13-11.85.22a68.36,68.36,0,0,0-9.89,1.45c-4.88,1.15-9.79,2.94-13.58,6.32a17.28,17.28,0,0,0-5.62,9.79c-.62,2.7-.38,5.5-.33,8.25l.39.21c-.08.16-.16.32-.25.47C3.21,82.82,5,87.72,8.72,91a24.56,24.56,0,0,0,12.18,5.54,64.59,64.59,0,0,0,13.64.86c2.07-.23,4.16,0,6.22-.31,5.38-.24,10.74-.76,16.13-.94L55.94,96a18.91,18.91,0,0,0,3.15,0c1.34,0,2.68,0,4-.14,1.58-.06,3.16,0,4.73-.06-1.23-7.67-1-15.47-1.05-23.22.07-2.31.17-4.62.21-6.93a4.43,4.43,0,0,1,.17-1.55c1.3.08,2.61,0,3.9.11,3.17.05,6.34.09,9.51.3A46.5,46.5,0,0,0,84.74,81a26.58,26.58,0,0,0,5.9,7.92,28.41,28.41,0,0,0,9.62,5.62A51.68,51.68,0,0,0,113,97.21a93.44,93.44,0,0,0,16.39,0,57.71,57.71,0,0,0,16.3-3.55,30.38,30.38,0,0,0-.16-4.22c-.12-1.19,0-2.4-.17-3.59s-.08-2.65-.2-4c-.22-1.59,0-3.21-.34-4.8a41.28,41.28,0,0,1-21.11,5.29,34.61,34.61,0,0,1-4.41-.51,19.42,19.42,0,0,1-8-3.36,14.42,14.42,0,0,1-5.07-7.15,19.08,19.08,0,0,1-.93-6.63l5.16.09c2.1-.07,4.19.28,6.29,0a67.63,67.63,0,0,0,11.55-1,36.75,36.75,0,0,0,10.38-3.3,19.5,19.5,0,0,0,7.76-6.87c2.54-4,3.21-8.9,2.86-13.55A19.28,19.28,0,0,0,145.23,29.3Zm-101.54,53a29.16,29.16,0,0,1-12.15.17A7.64,7.64,0,0,1,27,79.57a9.83,9.83,0,0,1-1.41-5.91,8.23,8.23,0,0,1,2.33-6.21,10.7,10.7,0,0,1,4.93-2.71c3.52-1,7.21-.91,10.84-.85-.09,2.63.09,5.26-.14,7.88a41.08,41.08,0,0,0,.11,4.2C43.59,78.09,43.77,80.21,43.69,82.32Zm80.49-33.43c-2.2,2.06-5.24,2.84-8.16,3.2-.84,0-1.68.12-2.52.23-1.83,0-3.66,0-5.48,0a18.88,18.88,0,0,0-2.78-.17,36.79,36.79,0,0,1,.29-5.26c.47-3.45,1.44-7,3.85-9.62a11.16,11.16,0,0,1,7.88-3.33A10.38,10.38,0,0,1,124,35.64a7.26,7.26,0,0,1,2.79,5.68A9.8,9.8,0,0,1,124.17,48.89Z"/><path id="_Compound_Path_2" data-name="&lt;Compound Path&gt;" d="M354.26,36.74a22.15,22.15,0,0,0-5-9.67,19.13,19.13,0,0,0-5.8-4c-4.29-2-9-2.64-13.7-3-1.4,0-2.79,0-4.18-.09a32.24,32.24,0,0,0-4.42-.08c-1.75.26-3.54,0-5.29.34-1.65.06-3.28.29-4.91.5A57.31,57.31,0,0,0,297.09,24c.2,2.14.14,4.29.4,6.41,0,2,.26,4.06.26,6.1a36.89,36.89,0,0,1,.19,4,10.62,10.62,0,0,0,2.37-1,52.25,52.25,0,0,1,7.59-2.76,34.85,34.85,0,0,1,15.7-1.09,10.41,10.41,0,0,1,5.08,2.55,10,10,0,0,1,2.65,5,30.16,30.16,0,0,1,.59,8.08c-4,0-8.07-.12-12.08.23a56.24,56.24,0,0,0-16,3.38A23.84,23.84,0,0,0,295.73,60a17.75,17.75,0,0,0-5.11,10.71,27.39,27.39,0,0,0-.16,4.19c.15,1.06.07,2.13.23,3.19a24,24,0,0,0,2.3,8,17.53,17.53,0,0,0,7.1,7.4A32.39,32.39,0,0,0,313,97.17c1.24.21,2.5.08,3.74.27,5.32.15,10.63-.18,15.94-.54,1.54,0,3.06-.3,4.6-.26,1.68-.25,3.38-.15,5.06-.36,2.45,0,4.89-.34,7.34-.28,2-.2,4-.14,6.08-.15,0-.54-.11-1.07-.17-1.61C354.38,82,355.69,42.37,354.26,36.74ZM331.72,82.32a38.59,38.59,0,0,1-6.39.72c-2.76,0-5.67-.11-8.15-1.47a6.8,6.8,0,0,1-3.34-4.6A12.89,12.89,0,0,1,314,70.5a7.64,7.64,0,0,1,2.8-3.88,14,14,0,0,1,6-2.33,47.28,47.28,0,0,1,8.75-.41c0,4,0,8,0,12l.36-.06-.33.4C331.73,78.27,331.67,80.3,331.72,82.32Z"/><path id="_Path_2" data-name="&lt;Path&gt;" d="M281.79,89.84c-.06.43-.1.87-.16,1.3-.22-6-.51-12.05-.54-18.09,0-2.87-.17-5.73-.12-8.6-.06-5.53.11-11.06.13-16.59A37.48,37.48,0,0,0,279,33.52a23.13,23.13,0,0,0-3.09-5.28,20.23,20.23,0,0,0-8.89-5.9A46.32,46.32,0,0,0,253.53,20c-3.1,0-6.19-.05-9.29,0-1.44.23-2.92.1-4.36.3-7.42.6-14.82,1.59-22.27,1.78-1.52.05-3,0-4.56.16,0,1.16,0,2.33.18,3.49.13,1.75.07,3.5.22,5.25.1,2.59,0,5.19.24,7.78q.19,18.9,0,37.79c-.19,2.58-.12,5.17-.2,7.76,0,3.83-.3,7.65-.45,11.47h24.87c-.35-4-.42-8.06-.65-12.09,0-3.43-.26-6.85-.22-10.29-.08-2,0-3.93-.17-5.88.07-4.27-.13-8.55.13-12.82,0-3.85.07-7.71.08-11.56.12-2.18.14-4.37.16-6.56l1.21-.41a29.93,29.93,0,0,1,9-1.07,11.6,11.6,0,0,1,6.09,1.76,8.08,8.08,0,0,1,2.91,3.91,21.64,21.64,0,0,1,1.19,5.94c0,1.54.21,3.08.16,4.63q.12,9,0,18c0,2.32,0,4.64-.16,6.95,0,2.45,0,4.9-.08,7.34,0,1.27-.22,2.53-.16,3.81,0,2.77-.26,5.52-.28,8.29,8.28,0,16.56,0,24.83,0A32.78,32.78,0,0,1,281.79,89.84Z"/></g><g id="_Group_3" data-name="&lt;Group&gt;"><g id="_Group_4" data-name="&lt;Group&gt;"><path id="_Compound_Path_3" data-name="&lt;Compound Path&gt;" d="M363.13,22.78a10.56,10.56,0,0,1,2-.16,3.22,3.22,0,0,1,2.28.64,2,2,0,0,1,.62,1.5,2.07,2.07,0,0,1-1.48,2v0a2,2,0,0,1,1.16,1.59,12.5,12.5,0,0,0,.61,2.16h-1.05a10.09,10.09,0,0,1-.53-1.88c-.23-1.09-.65-1.5-1.58-1.53h-1v3.41h-1Zm1,3.59h1c1.09,0,1.78-.6,1.78-1.5s-.74-1.46-1.81-1.47a4.19,4.19,0,0,0-1,.09Z"/></g><path id="_Compound_Path_4" data-name="&lt;Compound Path&gt;" d="M365.79,33.39a6.8,6.8,0,1,1,6.8-6.8A6.81,6.81,0,0,1,365.79,33.39Zm0-12.15a5.35,5.35,0,1,0,5.35,5.35A5.36,5.36,0,0,0,365.79,21.23Z"/></g></g></svg>