<?xml version="1.0" standalone="no"?>
<!DOCTYPE svg PUBLIC "-//W3C//DTD SVG 20010904//EN"
 "http://www.w3.org/TR/2001/REC-SVG-20010904/DTD/svg10.dtd">
<svg version="1.0" xmlns="http://www.w3.org/2000/svg"
 width="700.000000pt" height="700.000000pt" viewBox="0 0 700.000000 700.000000"
 preserveAspectRatio="xMidYMid meet">
<metadata>
Created by potrace 1.11, written by Peter Selinger 2001-2013
</metadata>
<g transform="translate(0.000000,700.000000) scale(0.100000,-0.100000)"
fill="#000000" stroke="none">
<path d="M3628 5785 c-2 -2 -25 -6 -53 -9 -79 -9 -105 -15 -196 -47 -201 -68
-396 -201 -523 -357 -20 -24 -37 -40 -37 -35 -1 4 -3 17 -4 28 -6 51 -16 122
-20 145 -7 42 -18 144 -17 162 0 10 -4 21 -10 25 -12 7 -724 12 -745 5 -10 -3
-13 -462 -13 -2247 l0 -2243 427 2 428 1 0 847 c0 467 1 848 3 848 2 0 31 -28
66 -63 115 -117 273 -206 447 -251 133 -35 174 -40 349 -39 240 1 410 35 609
123 99 43 201 103 275 160 29 23 167 152 185 174 93 112 131 167 188 277 100
194 148 351 178 584 14 110 16 408 3 489 -4 28 -10 67 -12 86 -14 108 -58 273
-108 400 -178 451 -534 779 -965 889 -127 33 -195 42 -340 45 -62 2 -113 2
-115 1z m112 -752 c255 -61 452 -281 536 -599 22 -84 27 -125 30 -269 2 -93
-1 -197 -7 -230 -64 -397 -329 -645 -694 -648 -55 -1 -113 2 -130 5 -322 63
-548 344 -601 746 -8 60 -8 232 0 297 60 495 438 800 866 698z"/>
</g>
</svg>
